<svg width="60" height="60" viewBox="0 0 60 60" fill="none" xmlns="http://www.w3.org/2000/svg">
<g clip-path="url(#clip0_190_106)">
<path d="M51 0H9C4.02944 0 0 4.02944 0 9V51C0 55.9706 4.02944 60 9 60H51C55.9706 60 60 55.9706 60 51V9C60 4.02944 55.9706 0 51 0Z" fill="white"/>
<path d="M17.484 48.6318L14.7 17.3838H45.2999L42.5159 48.6198L29.976 52.0998L17.484 48.6318Z" fill="#1F72B5"/>
<path d="M30 49.4479L40.128 46.6399L42.516 19.9399H30V49.4479Z" fill="#51A3DC"/>
<path d="M20.0519 27.1518L19.6799 23.5398H40.3199L40.0799 27.7278L31.3559 31.5798H39.7199L38.8199 43.4598L30.3839 45.7278L21.6359 43.6038L21.0959 37.5798H24.9599L25.1759 40.7598L30.2399 41.7078L34.9199 40.2678L35.1359 35.1798H20.7599L20.4959 31.3998L29.9999 27.2358L20.0519 27.1518Z" fill="#EBEBEB"/>
<path d="M20.4958 31.3998L20.7598 35.1798H29.9998V27.2358L20.4958 31.3998Z" fill="#CECECE"/>
<path d="M25.1759 40.7598L24.9599 37.5798H21.0959L21.6359 43.6038L29.9999 45.6318V41.6598L25.1759 40.7598Z" fill="#CECECE"/>
<path d="M19.6799 23.5398L20.0519 27.1518L29.9999 27.2358V23.5398H19.6799Z" fill="#CECECE"/>
<path d="M32.88 10.3399V8.8999H27.12V12.2599H31.08V13.3399H27V14.6599H32.76V11.1799H28.68V10.3399H32.88Z" fill="black"/>
<path d="M22.44 12.2959V13.3399H26.52V14.6599H20.76V11.2159V8.8999H26.4V10.3399H22.44V12.2959Z" fill="black"/>
<path d="M39.2401 10.3399V8.8999H33.4801V12.2599H37.4401V13.3399H33.3601V14.6599H39.1201V11.1799H35.0401V10.3399H39.2401Z" fill="black"/>
</g>
<defs>
<clipPath id="clip0_190_106">
<rect width="60" height="60" rx="10" fill="white"/>
</clipPath>
</defs>
</svg>
