<svg width="60" height="60" viewBox="0 0 60 60" fill="none" xmlns="http://www.w3.org/2000/svg">
<g clip-path="url(#clip0_193_166)">
<path d="M51 0H9C4.02944 0 0 4.02944 0 9V51C0 55.9706 4.02944 60 9 60H51C55.9706 60 60 55.9706 60 51V9C60 4.02944 55.9706 0 51 0Z" fill="white"/>
<path d="M20 37.8764V26.3539H20.625V28.1664C20.6988 28.0861 20.767 28.0007 20.829 27.9109C21.351 26.8279 22.452 26.1444 23.654 26.1579C25.079 26.1154 26.237 26.6429 26.9175 27.9109C27.3506 28.6987 27.5889 29.5786 27.6125 30.4772C27.6362 31.3758 27.4445 32.267 27.0535 33.0764C26.4195 34.4974 24.8535 35.2039 23.177 34.9444C22.6553 34.9001 22.153 34.7257 21.7159 34.4373C21.2789 34.1489 20.921 33.7557 20.675 33.2934V37.8759L20 37.8764ZM20.625 30.4299L20.765 31.7829C21.012 33.3229 21.9225 34.2329 23.352 34.4039C24.0233 34.5143 24.7121 34.3884 25.301 34.0478C25.8899 33.7072 26.3425 33.1729 26.5815 32.5359C27.1375 31.2109 27.0965 29.7109 26.4715 28.4169C26.2164 27.846 25.7824 27.3736 25.235 27.0711C24.6876 26.7686 24.0567 26.6526 23.4375 26.7404C22.8563 26.7827 22.3028 27.0049 21.8537 27.3763C21.4046 27.7476 21.0823 28.2495 20.9315 28.8124C20.7984 29.3451 20.6961 29.885 20.625 30.4294V30.4299ZM40.374 31.9959C40.2792 32.8072 39.893 33.5565 39.2872 34.1043C38.6814 34.6522 37.8972 34.9614 37.0805 34.9744C34.4595 35.1064 33.2295 33.3659 33.034 31.3574C32.8981 30.2667 33.0751 29.1598 33.5445 28.1659C33.8712 27.4841 34.4065 26.924 35.0728 26.5668C35.7391 26.2095 36.5019 26.0737 37.2505 26.1789C37.9623 26.2394 38.637 26.5222 39.1791 26.9873C39.7213 27.4524 40.1034 28.0762 40.2715 28.7704C40.4047 29.4028 40.5027 30.0422 40.565 30.6854H33.6815C33.554 32.5064 34.5325 33.9704 35.9195 34.3234C37.647 34.7484 39.1235 33.9999 39.6595 32.3574C39.7785 31.9359 39.9955 31.8764 40.3785 31.9959H40.374ZM33.6765 30.1024H39.8335C39.795 28.1624 38.587 26.7524 36.9485 26.7364C35.0985 26.7064 33.757 28.0599 33.6765 30.1024ZM41.6465 32.0384H42.25C42.2722 32.483 42.4166 32.9129 42.6673 33.2808C42.918 33.6486 43.2653 33.9402 43.671 34.1234C44.1805 34.3527 44.735 34.4641 45.2935 34.4494C45.8519 34.4347 46.3999 34.2942 46.8965 34.0384C47.1673 33.9165 47.394 33.7145 47.5462 33.4595C47.6984 33.2046 47.7687 32.9091 47.7475 32.6129C47.7631 32.3273 47.6851 32.0444 47.5254 31.8071C47.3657 31.5698 47.133 31.391 46.8625 31.2979C46.1985 31.0509 45.4925 30.9149 44.816 30.6979C44.1121 30.4975 43.4237 30.2458 42.7565 29.9449C41.6665 29.4129 41.599 27.3409 42.833 26.6849C43.4649 26.3284 44.176 26.1357 44.9014 26.1245C45.6268 26.1134 46.3435 26.284 46.986 26.6209C47.783 27.0609 48.2235 27.9494 48.0925 28.8509H47.575C47.575 28.8259 47.528 28.8039 47.528 28.7784C47.464 27.1284 46.077 26.6124 44.588 26.7574C44.138 26.8074 43.7115 26.9434 43.3115 27.1444C43.0711 27.2542 42.8707 27.4361 42.7381 27.6648C42.6055 27.8934 42.5473 28.1577 42.5715 28.4209C42.572 28.6843 42.6541 28.9412 42.8065 29.156C42.9589 29.3709 43.1741 29.5333 43.4225 29.6209C44.0725 29.8594 44.7625 30.0124 45.435 30.1994L47.06 30.6244C47.4294 30.7457 47.7532 30.9761 47.9887 31.2854C48.2243 31.5947 48.3604 31.9681 48.379 32.3564C48.509 33.2289 48.064 34.0864 47.277 34.4839C45.856 35.2879 43.5155 35.0754 42.473 34.0589C41.9395 33.5224 41.642 32.7939 41.648 32.0379L41.6465 32.0384ZM56.0365 28.8514H55.4705C55.4705 28.7749 55.4405 28.7014 55.432 28.6429C55.423 28.2187 55.2684 27.8104 54.9941 27.4866C54.7198 27.1628 54.3425 26.9431 53.9255 26.8644C53.1389 26.6388 52.2998 26.6792 51.5385 26.9794C51.2375 27.0656 50.9725 27.2468 50.783 27.4961C50.5936 27.7454 50.4899 28.0493 50.4875 28.3624C50.4768 28.6699 50.5725 28.9716 50.7585 29.2166C50.9446 29.4615 51.2095 29.6348 51.5085 29.7069L54.0955 30.3709C54.3753 30.438 54.6508 30.5218 54.9205 30.6219C55.7455 30.9219 56.3055 31.6879 56.3305 32.5634C56.3429 32.992 56.2254 33.4142 55.9933 33.7747C55.7613 34.1353 55.4257 34.4172 55.0305 34.5834C54.4301 34.8562 53.7793 35.0005 53.1198 35.0071C52.4604 35.0137 51.8068 34.8825 51.201 34.6219C50.7028 34.4071 50.2824 34.0448 49.9963 33.5838C49.7103 33.1228 49.5723 32.5852 49.601 32.0434H50.154C50.362 33.0459 51.0505 33.8809 51.995 34.2759C52.9395 34.6709 54.018 34.5739 54.877 34.0179C55.1348 33.8839 55.3487 33.6788 55.4935 33.427C55.6383 33.1751 55.7079 32.8871 55.694 32.5969C55.7068 32.3111 55.6261 32.0289 55.464 31.7931C55.302 31.5574 55.0675 31.3809 54.796 31.2904C54.132 31.0434 53.426 30.9119 52.7495 30.6904C52.0416 30.4931 51.3491 30.2443 50.6775 29.9459C49.6135 29.4224 49.5285 27.3674 50.7415 26.7119C51.3812 26.3404 52.1062 26.1408 52.8458 26.1326C53.5855 26.1244 54.3147 26.3077 54.9625 26.6649C55.333 26.886 55.6313 27.2101 55.8209 27.5977C56.0105 27.9853 56.0834 28.4197 56.0305 28.8479L56.0365 28.8514ZM18.9715 34.7664C18.7487 34.8507 18.5028 34.8504 18.2802 34.7658C18.0575 34.6811 17.8736 34.5179 17.763 34.3069L15.563 31.2644L15.244 30.8394L12.691 34.3114C12.587 34.5133 12.413 34.6705 12.2015 34.7535C11.9901 34.8365 11.7556 34.8396 11.542 34.7624L14.831 30.3499L11.771 26.3629C12.225 26.1989 12.731 26.3769 12.9835 26.7879L15.2635 29.8679L17.557 26.7999C17.6619 26.6015 17.836 26.4485 18.0463 26.37C18.2565 26.2916 18.4883 26.2931 18.6975 26.3744L17.51 27.9499L15.9015 30.0434C15.8569 30.0833 15.8212 30.1321 15.7967 30.1868C15.7723 30.2414 15.7596 30.3006 15.7596 30.3604C15.7596 30.4203 15.7723 30.4795 15.7967 30.5341C15.8212 30.5887 15.8569 30.6376 15.9015 30.6774L18.965 34.7664H18.9715ZM32.9365 26.3204V26.9204C32.5062 26.8922 32.0747 26.9545 31.6699 27.1034C31.2651 27.2522 30.896 27.4843 30.5865 27.7846C30.2769 28.0849 30.0338 28.4468 29.8727 28.8469C29.7117 29.247 29.6363 29.6764 29.6515 30.1074C29.6515 31.5088 29.6515 32.9101 29.6515 34.3114V34.7879H29.043V26.3579H29.643V28.0854C30.379 26.8254 31.515 26.3579 32.9405 26.3239L32.9365 26.3204ZM3.66653 30.2949L3.93453 28.9714C4.67053 26.3544 7.67053 25.2654 9.73453 26.8864C10.943 27.8354 11.2445 29.1799 11.1855 30.6949H4.37703C4.26703 33.4009 6.21953 35.0349 8.71703 34.2009C9.54003 33.9009 10.1595 33.2169 10.3635 32.3669C10.4955 31.9419 10.7135 31.8689 11.1125 31.9919C11.046 32.51 10.8628 33.0062 10.5769 33.4433C10.2909 33.8804 9.90957 34.247 9.46153 34.5154C8.72131 34.9202 7.87204 35.0806 7.03516 34.9737C6.19828 34.8667 5.41665 34.4979 4.80203 33.9199C4.19403 33.2364 3.82703 32.3724 3.75553 31.4599C3.75553 31.3099 3.70553 31.1699 3.67053 31.0349C3.66719 30.7826 3.66553 30.5359 3.66553 30.2949H3.66653ZM4.38553 30.1119H10.5425C10.504 28.1504 9.26603 26.7589 7.61503 26.7459C5.77703 26.7209 4.46203 28.0819 4.38103 30.1034L4.38553 30.1119Z" fill="black"/>
</g>
<defs>
<clipPath id="clip0_193_166">
<rect width="60" height="60" rx="10" fill="white"/>
</clipPath>
</defs>
</svg>
