<svg width="60" height="60" viewBox="0 0 60 60" fill="none" xmlns="http://www.w3.org/2000/svg">
<g clip-path="url(#clip0_193_247)">
<path d="M51 0H9C4.02944 0 0 4.02944 0 9V51C0 55.9706 4.02944 60 9 60H51C55.9706 60 60 55.9706 60 51V9C60 4.02944 55.9706 0 51 0Z" fill="white"/>
<g clip-path="url(#clip1_193_247)">
<path d="M24.0502 15.3002L28.1452 19.3952M30.0002 23.8752V36.1252M49.6177 28.7577L31.2427 10.3827C30.9148 10.0567 30.4712 9.87378 30.0089 9.87378C29.5466 9.87378 29.103 10.0567 28.7752 10.3827L10.3827 28.7577C10.0567 29.0855 9.87378 29.5291 9.87378 29.9914C9.87378 30.4537 10.0567 30.8973 10.3827 31.2252L28.7577 49.6002C29.0855 49.9261 29.5291 50.1091 29.9914 50.1091C30.4537 50.1091 30.8973 49.9261 31.2252 49.6002L49.6002 31.2252C49.9261 30.8973 50.1091 30.4537 50.1091 29.9914C50.1091 29.5291 49.9261 29.0855 49.6002 28.7577H49.6177Z" stroke="#303C42" stroke-width="1.75" stroke-linecap="round" stroke-linejoin="round"/>
<path d="M30 23.875C31.4497 23.875 32.625 22.6997 32.625 21.25C32.625 19.8003 31.4497 18.625 30 18.625C28.5503 18.625 27.375 19.8003 27.375 21.25C27.375 22.6997 28.5503 23.875 30 23.875Z" stroke="#303C42" stroke-width="1.75" stroke-linecap="round" stroke-linejoin="round"/>
<path d="M38.75 32.625C40.1997 32.625 41.375 31.4497 41.375 30C41.375 28.5503 40.1997 27.375 38.75 27.375C37.3003 27.375 36.125 28.5503 36.125 30C36.125 31.4497 37.3003 32.625 38.75 32.625Z" stroke="#303C42" stroke-width="1.75" stroke-linecap="round" stroke-linejoin="round"/>
<path d="M30 41.375C31.4497 41.375 32.625 40.1997 32.625 38.75C32.625 37.3003 31.4497 36.125 30 36.125C28.5503 36.125 27.375 37.3003 27.375 38.75C27.375 40.1997 28.5503 41.375 30 41.375Z" stroke="#303C42" stroke-width="1.75" stroke-linecap="round" stroke-linejoin="round"/>
<path d="M31.8376 23.1226L36.8776 28.1626" stroke="#303C42" stroke-width="1.75" stroke-linecap="round" stroke-linejoin="round"/>
</g>
</g>
<defs>
<clipPath id="clip0_193_247">
<rect width="60" height="60" rx="10" fill="white"/>
</clipPath>
<clipPath id="clip1_193_247">
<rect width="42" height="42" fill="white" transform="translate(9 9)"/>
</clipPath>
</defs>
</svg>
