<svg width="60" height="60" viewBox="0 0 60 60" fill="none" xmlns="http://www.w3.org/2000/svg">
<g clip-path="url(#clip0_193_283)">
<path d="M51 0H9C4.02944 0 0 4.02944 0 9V51C0 55.9706 4.02944 60 9 60H51C55.9706 60 60 55.9706 60 51V9C60 4.02944 55.9706 0 51 0Z" fill="white"/>
<path d="M30 11.3059C25.4488 11.3061 21.0462 12.9257 17.5799 15.8749C14.1136 18.8242 11.8098 22.9106 11.0808 27.403C10.3518 31.8954 11.245 36.5006 13.6008 40.3947C15.9565 44.2887 19.621 47.2175 23.9385 48.6569C24.8969 48.8247 25.2563 48.2497 25.2563 47.7465C25.2563 47.2913 25.2323 45.7819 25.2323 44.1767C20.4166 45.0632 19.1708 43.0028 18.7875 41.9247C18.3621 40.8762 17.6878 39.9469 16.8229 39.2174C16.1521 38.858 15.1937 37.9715 16.7989 37.9476C17.4118 38.0141 17.9997 38.2274 18.5127 38.5694C19.0257 38.9114 19.4487 39.372 19.7458 39.9121C20.0079 40.3831 20.3604 40.7976 20.7831 41.1321C21.2057 41.4666 21.6902 41.7143 22.2088 41.8612C22.7274 42.0081 23.2698 42.0512 23.8051 41.9881C24.3403 41.925 24.8579 41.7569 25.3281 41.4934C25.411 40.519 25.8453 39.608 26.55 38.9299C22.2854 38.4508 17.8291 36.7976 17.8291 29.4664C17.8022 27.5615 18.5051 25.7185 19.7937 24.3153C19.2078 22.6598 19.2763 20.8429 19.9854 19.2362C19.9854 19.2362 21.5905 18.733 25.2562 21.2008C28.3924 20.3382 31.7033 20.3382 34.8396 21.2008C38.5051 18.7091 40.1104 19.2362 40.1104 19.2362C40.8195 20.8429 40.8881 22.6598 40.3021 24.3153C41.5945 25.7161 42.2981 27.5607 42.2666 29.4664C42.2666 36.8215 37.7864 38.4508 33.5218 38.9299C33.9793 39.3935 34.3315 39.9502 34.5548 40.562C34.778 41.1738 34.867 41.8265 34.8156 42.4758C34.8156 45.0393 34.7916 47.0997 34.7916 47.7466C34.7916 48.2497 35.151 48.8487 36.1093 48.657C40.4193 47.2058 44.0732 44.2702 46.4189 40.3742C48.7646 36.4781 49.6494 31.8752 48.9153 27.3872C48.1812 22.8991 45.8761 18.818 42.4113 15.8724C38.9465 12.9267 34.5477 11.3083 30 11.3059Z" fill="black"/>
</g>
<defs>
<clipPath id="clip0_193_283">
<rect width="60" height="60" rx="10" fill="white"/>
</clipPath>
</defs>
</svg>
