<svg width="60" height="60" viewBox="0 0 60 60" fill="none" xmlns="http://www.w3.org/2000/svg">
<g clip-path="url(#clip0_190_77)">
<path d="M51 0H9C4.02944 0 0 4.02944 0 9V51C0 55.9706 4.02944 60 9 60H51C55.9706 60 60 55.9706 60 51V9C60 4.02944 55.9706 0 51 0Z" fill="white"/>
<path d="M17.0101 49.3146L14.1196 16.895H45.8805L42.9871 49.3096L29.9806 52.9152L17.0101 49.3146Z" fill="#E44D26"/>
<path d="M30 50.1594L40.5096 47.2456L42.9824 19.5464H30V50.1594Z" fill="#F16529"/>
<path d="M30.0002 31.5704H24.7386L24.3756 27.4983H30.0002V23.5222H20.03L20.1249 24.5892L21.1024 35.5462H30.0002V31.5704ZM30.0002 41.8963L29.9826 41.901L25.5547 40.705L25.2715 37.5342H21.2799L21.837 43.7773L29.9818 46.0385L30.0002 46.0331V41.8963Z" fill="#EBEBEB"/>
<path d="M17.0747 8.08472H19.0951V10.0814H20.9437V8.08472H22.9645V14.1301H20.9437V12.1058H19.0955V14.1301H17.0747V8.08472ZM25.6214 10.0897H23.8425V8.08472H29.4218V10.0897H27.6421V14.1301H25.6214V10.0897ZM30.3073 8.08472H32.4139L33.7102 10.209L35.005 8.08472H37.1127V14.1301H35.0999V11.1337L33.7102 13.2831H33.675L32.2842 11.1337V14.1301H30.3069V8.08472H30.3073ZM38.1186 8.08472H40.1398V12.132H42.9813V14.1305H38.1186V8.08472Z" fill="black"/>
<path d="M29.9863 31.5704V35.5462H34.8825L34.421 40.7029L29.9863 41.8999V46.0363L38.1377 43.7773L38.1973 43.1053L39.1317 32.6378L39.2287 31.5704H38.1571H29.9863ZM29.9863 23.5222V27.4983H39.5906L39.67 26.6046L39.8515 24.5892L39.9468 23.5222H29.9863Z" fill="white"/>
</g>
<defs>
<clipPath id="clip0_190_77">
<rect width="60" height="60" rx="10" fill="white"/>
</clipPath>
</defs>
</svg>
