<svg width="60" height="60" viewBox="0 0 60 60" fill="none" xmlns="http://www.w3.org/2000/svg">
<g clip-path="url(#clip0_193_287)">
<path d="M51 0H9C4.02944 0 0 4.02944 0 9V51C0 55.9706 4.02944 60 9 60H51C55.9706 60 60 55.9706 60 51V9C60 4.02944 55.9706 0 51 0Z" fill="white"/>
<path fill-rule="evenodd" clip-rule="evenodd" d="M37.9954 42.4227C38.0535 42.311 38.1091 42.2123 38.1566 42.1102C38.1865 42.0449 38.2325 42.0319 38.2975 42.0336C38.687 42.0446 39.0765 42.0566 39.4663 42.0604C39.7973 42.0638 40.129 42.0577 40.4604 42.0539C40.8337 42.0494 41.207 42.0298 41.58 42.0405C42.0767 42.0549 42.5607 42.1522 43.01 42.3732C43.5466 42.6376 43.9525 43.0401 44.2293 43.5705C44.406 43.9091 44.5084 44.2683 44.5493 44.6499C44.6084 45.2026 44.5696 45.7427 44.3943 46.2713C44.177 46.9265 43.7645 47.4281 43.1915 47.8038C42.7505 48.0929 42.2668 48.2637 41.7484 48.3613C41.1998 48.4648 40.6495 48.4315 40.0991 48.4332C39.4955 48.4356 38.8922 48.4225 38.2886 48.4157C38.183 48.4146 38.1679 48.3947 38.1958 48.294L38.2215 48.2011C38.2803 48.0162 38.312 48.008 38.4996 47.977C38.6296 47.9561 38.7643 47.9072 38.8733 47.8351C38.9365 47.7931 38.9627 47.6838 38.9874 47.5996C39.0087 47.526 39.0098 47.4452 39.0105 47.3676C39.019 46.1902 39.028 45.0132 39.0328 43.8366C39.0338 43.5392 39.027 43.2412 39.0105 42.9442C38.9988 42.7362 38.8877 42.5939 38.6402 42.5447C38.4477 42.5066 38.2539 42.477 38.0603 42.443L37.9954 42.4227ZM43.5215 45.2734C43.4954 45.039 43.4826 44.8025 43.4407 44.5715C43.3403 44.017 43.0976 43.5341 42.6714 43.1556C41.9822 42.5441 41.1524 42.4499 40.2827 42.5227C40.0847 42.5392 40.042 42.607 40.039 42.8105C40.0341 43.0992 40.0293 43.388 40.029 43.6767C40.0276 44.5925 40.0276 45.5082 40.029 46.424C40.0293 46.6845 40.0321 46.9451 40.0396 47.205C40.0479 47.471 40.1445 47.6962 40.405 47.7993C40.8158 47.9619 41.2479 47.9812 41.679 47.9148C42.3675 47.8093 42.8491 47.4081 43.1722 46.8069C43.428 46.3298 43.5002 45.809 43.5215 45.2734ZM45.1952 48.3916C45.187 48.2489 45.2454 48.131 45.3176 48.0227C45.3372 47.9935 45.4045 47.9949 45.451 47.9856L45.8449 47.9076C45.9841 47.878 46.0573 47.7845 46.0769 47.6481C46.09 47.558 46.1024 47.4669 46.1034 47.3758C46.112 46.655 46.1202 45.9341 46.1237 45.2133C46.1271 44.4914 46.1244 43.7695 46.1244 43.0477L46.1213 42.9098C46.1072 42.6778 45.9951 42.5575 45.7648 42.5234L45.2653 42.4475C45.2038 42.4392 45.1815 42.4097 45.2038 42.355C45.2423 42.2618 45.2791 42.1652 45.3334 42.0814C45.3537 42.0504 45.4221 42.0384 45.4681 42.0394C45.7067 42.0429 45.9453 42.0607 46.1838 42.0604L48.2604 42.048C48.6605 42.0477 49.0469 42.1175 49.4058 42.3089C49.8008 42.5193 50.0218 42.8448 50.085 43.2883C50.151 43.7541 50.0098 44.1466 49.6695 44.4584C49.5295 44.587 49.3484 44.6708 49.1861 44.7753L49.1332 44.8083C49.2838 44.8637 49.4271 44.9115 49.5667 44.9685C49.975 45.1359 50.2999 45.3975 50.4718 45.8152C50.6075 46.1448 50.6075 46.4886 50.5271 46.8303C50.402 47.3652 50.0496 47.7209 49.5914 47.9901C49.1614 48.2427 48.696 48.3899 48.2003 48.4146C47.7431 48.4377 47.2838 48.4291 46.8256 48.4342L46.5602 48.4356C46.1189 48.4256 45.6771 48.4143 45.2354 48.4026L45.1952 48.3916ZM47.0985 46.2985H47.103C47.103 46.5247 47.0999 46.7509 47.104 46.9771C47.1068 47.1235 47.1016 47.2741 47.1333 47.415C47.1807 47.6257 47.277 47.8158 47.5135 47.8763C47.8328 47.9585 48.159 47.975 48.4821 47.9189C48.8867 47.8485 49.2095 47.6457 49.3865 47.2603C49.5179 46.974 49.5375 46.6704 49.4924 46.3604C49.4326 45.952 49.2157 45.6557 48.8551 45.4615C48.6186 45.3339 48.3663 45.2559 48.0975 45.2456C47.7964 45.2342 47.4949 45.2336 47.1938 45.2243C47.1092 45.2219 47.0975 45.2648 47.0979 45.3343C47.0996 45.6553 47.0985 45.9767 47.0985 46.2985ZM47.7396 44.7602C47.9043 44.752 48.0906 44.7496 48.2759 44.731C48.6306 44.6956 48.8805 44.5172 49.0108 44.1779C49.0772 44.0057 49.0744 43.8283 49.0761 43.6492C49.0813 43.1827 48.809 42.8005 48.366 42.6424C48.0239 42.5203 47.6712 42.5183 47.3165 42.5279C47.1728 42.5317 47.1085 42.5946 47.1065 42.7393L47.0851 44.6262C47.0841 44.7011 47.1164 44.7334 47.1893 44.7358L47.7396 44.7602Z" fill="#94795D"/>
<path fill-rule="evenodd" clip-rule="evenodd" d="M11.6241 48.0291L11.599 48.3536C11.3653 48.3536 11.1498 48.3519 10.9342 48.3543C10.5283 48.3584 10.1223 48.3649 9.71598 48.3708L9.67679 48.3732C9.6187 48.3663 9.51317 48.3663 9.51042 48.3491C9.49323 48.2525 9.49873 48.1511 9.5032 48.0511C9.50354 48.0397 9.54307 48.0253 9.5661 48.0198L9.88201 47.9493C10.079 47.8981 10.1484 47.8132 10.1577 47.6097C10.1684 47.3804 10.179 47.1508 10.18 46.9215C10.1831 46.3571 10.1797 45.7933 10.1821 45.2289C10.1824 45.0969 10.1367 44.9986 10.0137 44.945C9.86723 44.8803 9.7201 44.8171 9.57195 44.7573C9.50182 44.7291 9.41073 44.7136 9.41898 44.6194C9.42723 44.5235 9.51557 44.4984 9.59876 44.4795C9.9432 44.4008 10.288 44.3242 10.6314 44.2403C10.7421 44.2131 10.8479 44.1674 10.9803 44.1213C10.9872 44.1928 10.9999 44.2609 10.9985 44.329L10.9782 44.6524C10.9779 44.6889 10.9968 44.7377 11.0239 44.758C11.0404 44.7707 11.0958 44.7476 11.1233 44.7263C11.4169 44.5029 11.7276 44.3101 12.082 44.1977C12.631 44.0234 13.1023 44.1849 13.4323 44.6583C13.5484 44.825 13.5488 44.825 13.71 44.7085C13.9867 44.5074 14.2762 44.33 14.6 44.2131C15.3109 43.9563 15.9939 44.2822 16.241 44.9982C16.3311 45.2581 16.3655 45.5266 16.3648 45.8009L16.3583 47.6221C16.3579 47.7723 16.4078 47.8579 16.5508 47.9046C16.7113 47.9572 16.8777 47.9933 17.0585 48.0408L17.0165 48.3539C16.811 48.3539 16.6219 48.3526 16.4329 48.3543C15.9709 48.3584 15.5089 48.3608 15.0472 48.3715C14.9668 48.3735 14.9458 48.3536 14.9417 48.2783C14.9283 48.0373 14.9262 48.0377 15.1531 47.9834L15.2294 47.9638C15.4511 47.9033 15.525 47.8352 15.5267 47.6104C15.5319 46.9648 15.5453 46.3176 15.5126 45.6734C15.4786 45.0051 14.9482 44.6493 14.3006 44.8205C14.0892 44.8762 13.8977 44.9738 13.7196 45.1003C13.6595 45.1433 13.6481 45.1928 13.6529 45.2681C13.6712 45.5527 13.6825 45.8377 13.6849 46.1226C13.689 46.6214 13.6829 47.1202 13.6849 47.6193C13.6856 47.8215 13.7547 47.8988 13.9544 47.9456L14.2511 48.014L14.3061 48.0263C14.3102 48.1212 14.314 48.2161 14.3095 48.311C14.3068 48.3704 14.2607 48.3756 14.2091 48.3746C13.9207 48.3673 13.632 48.3577 13.3436 48.3584C12.9926 48.3591 12.642 48.3691 12.2914 48.3752H12.2089C12.2089 48.2745 12.204 48.1783 12.2123 48.0824C12.214 48.0593 12.2546 48.027 12.2824 48.0198L12.6282 47.9466C12.775 47.9105 12.8451 47.8352 12.8534 47.686C12.8926 46.9951 12.9208 46.3038 12.8558 45.6132C12.8431 45.4791 12.7994 45.343 12.7437 45.2196C12.5667 44.8284 12.1683 44.6651 11.7087 44.7827C11.4904 44.8384 11.2934 44.9384 11.1071 45.0646C11.0191 45.1244 10.9772 45.2035 10.9772 45.3035C10.9772 45.9927 10.9796 46.6819 10.9817 47.3708L10.9854 47.6365C10.9896 47.8218 11.0683 47.9194 11.2522 47.9593C11.3704 47.9861 11.4901 48.0043 11.6241 48.0291Z" fill="#50382B"/>
<path fill-rule="evenodd" clip-rule="evenodd" d="M32.4067 44.1917C32.4599 44.4509 32.4589 44.6839 32.2685 44.8606C32.0794 45.0363 31.8402 44.9772 31.6068 44.938C31.6284 45.061 31.6525 45.1655 31.6642 45.2714C31.7491 46.0583 31.4105 46.6423 30.6807 46.9761C30.405 47.1019 30.1125 47.1486 29.8138 47.1727C29.6653 47.1844 29.5353 47.2978 29.5212 47.4199C29.5068 47.5436 29.5845 47.6708 29.7398 47.7079C29.9231 47.7516 30.1142 47.7639 30.3022 47.7856C30.7058 47.8317 31.1138 47.8526 31.5126 47.9248C32.1155 48.0334 32.452 48.5597 32.3458 49.1654C32.2513 49.7044 31.9392 50.0966 31.504 50.3974C30.7708 50.9055 29.9664 51.054 29.1098 50.7948C28.6199 50.6463 28.2744 50.3242 28.1552 49.8031C28.0953 49.5422 28.1589 49.306 28.3552 49.129C28.5886 48.9193 28.8427 48.7323 29.0871 48.5343L29.1661 48.4549L29.0754 48.3913C28.8262 48.273 28.6268 48.1111 28.5494 47.8299C28.523 47.7347 28.5505 47.6722 28.6313 47.6233C28.7688 47.5405 28.9056 47.4563 29.0413 47.3707C29.1053 47.3308 29.1685 47.2896 29.228 47.2435C29.3091 47.1816 29.3019 47.1356 29.205 47.0998C28.9795 47.0166 28.7791 46.896 28.6237 46.7104C28.3642 46.4006 28.2906 46.0318 28.3119 45.6423C28.3453 45.0339 28.6756 44.6331 29.2125 44.3753C29.8509 44.069 30.4913 44.0497 31.142 44.3288C31.3826 44.432 31.6363 44.454 31.8945 44.4361C32.0873 44.4224 32.2558 44.3495 32.4067 44.1917ZM30.0544 48.5508C29.5752 48.5467 29.425 48.6058 29.1438 48.8921C28.8289 49.2132 28.8306 49.6584 29.1448 49.9808C29.3834 50.2252 29.6811 50.3397 30.0121 50.374C30.3988 50.4139 30.7797 50.3978 31.131 50.2042C31.5057 49.9969 31.692 49.6119 31.6078 49.2242C31.538 48.9042 31.3022 48.7577 31.0152 48.6735C30.6886 48.5779 30.351 48.5597 30.0544 48.5508ZM29.1132 45.4887C29.1307 45.6217 29.1379 45.7564 29.1675 45.8867C29.2442 46.2243 29.3909 46.5209 29.7268 46.6712C30.1211 46.8482 30.6247 46.7722 30.7972 46.2188C30.9155 45.8396 30.901 45.4632 30.7584 45.0933C30.6948 44.9283 30.5923 44.7888 30.4456 44.6864C30.1032 44.4474 29.4855 44.4158 29.2338 44.9438C29.152 45.1154 29.1201 45.2979 29.1132 45.4887Z" fill="#4F382B"/>
<path fill-rule="evenodd" clip-rule="evenodd" d="M24.2767 44.1069C24.2894 44.1657 24.3148 44.2324 24.3155 44.2994C24.3165 44.4269 24.3028 44.5545 24.2956 44.682V44.7927L24.4035 44.7102C24.6991 44.4668 25.0168 44.2595 25.3866 44.1478C26.0542 43.9467 26.7211 44.3121 26.9387 44.9921C27.0212 45.2506 27.0538 45.5163 27.0569 45.7865C27.0638 46.3867 27.0679 46.9868 27.0741 47.587C27.0762 47.8026 27.1009 47.8411 27.3048 47.9033C27.4203 47.9387 27.5395 47.9634 27.6588 47.982C27.7245 47.9923 27.7527 48.0181 27.7492 48.0824L27.7499 48.1415C27.7475 48.39 27.7303 48.4014 27.4894 48.4007C26.9125 48.3997 26.3361 48.4031 25.7593 48.4079C25.5874 48.4093 25.587 48.4144 25.5699 48.2446L25.5664 48.147C25.5771 48.0006 25.5805 48.0019 25.7245 47.9806C25.8215 47.9662 25.9177 47.9438 26.0123 47.9191C26.1095 47.894 26.1563 47.8222 26.1694 47.7259C26.1759 47.6771 26.1845 47.6283 26.1841 47.5795C26.1759 46.9236 26.1865 46.267 26.1508 45.6122C26.1219 45.0825 25.7177 44.7669 25.1859 44.803C24.925 44.8212 24.6892 44.9082 24.474 45.0584C24.332 45.1577 24.3035 45.3011 24.3042 45.4554C24.3069 46.0687 24.3128 46.6819 24.3193 47.2955C24.3207 47.4299 24.3244 47.5643 24.3372 47.6977C24.3506 47.8435 24.4018 47.9022 24.5448 47.9339C24.6816 47.9641 24.8212 47.9817 24.9673 48.0061L24.9796 48.1188C24.9844 48.3818 24.9569 48.4014 24.7015 48.4003C24.1051 48.3979 23.5087 48.4017 22.9127 48.4082C22.8188 48.4096 22.7789 48.3801 22.7814 48.2886L22.78 48.2494C22.7645 48.0126 22.7714 48.0037 22.9955 47.9652L23.1014 47.9438C23.3441 47.8892 23.4063 47.8246 23.4097 47.5781C23.4211 46.7974 23.4252 46.0171 23.4331 45.2365C23.4341 45.1244 23.3919 45.0374 23.2874 44.991C23.1409 44.9264 22.9931 44.8649 22.8449 44.804C22.7631 44.7703 22.6696 44.749 22.6665 44.6359C22.6645 44.5562 22.7497 44.4857 22.8663 44.462C23.1004 44.4146 23.3365 44.375 23.5679 44.3169C23.7982 44.2595 24.0244 44.1825 24.2767 44.1069Z" fill="#4F372B"/>
<path fill-rule="evenodd" clip-rule="evenodd" d="M37.1724 46.146C37.1614 46.8751 36.972 47.4646 36.4563 47.907C35.8032 48.4684 34.7843 48.6592 33.9514 48.2394C33.596 48.0604 33.3347 47.7857 33.1646 47.4292C32.9037 46.881 32.8384 46.3045 32.9745 45.7139C33.1092 45.1299 33.463 44.7067 33.9923 44.4328C34.5368 44.1512 35.1102 44.0412 35.7149 44.189C36.4797 44.3757 37.0294 44.9993 37.1387 45.7933C37.1583 45.9325 37.1658 46.0735 37.1724 46.146ZM36.2865 46.541L36.257 46.5375C36.257 46.4688 36.2607 46.4 36.2563 46.3313C36.2312 45.903 36.1349 45.495 35.8867 45.1364C35.6513 44.7968 35.3306 44.5964 34.9132 44.5672C34.4461 44.5342 34.0535 44.7954 33.9157 45.2725C33.7087 45.9889 33.7789 46.6871 34.1426 47.3433C34.301 47.6293 34.5358 47.8404 34.8503 47.9514C35.4667 48.1683 36.0132 47.8874 36.1738 47.2563C36.2329 47.0233 36.2501 46.7795 36.2865 46.541Z" fill="#4F382B"/>
<path fill-rule="evenodd" clip-rule="evenodd" d="M22.0315 46.2024C22.0187 46.7256 21.8953 47.2092 21.5722 47.6297C21.226 48.08 20.7503 48.3206 20.2092 48.422C19.5695 48.5416 18.9686 48.433 18.4547 48.0036C18.2107 47.7995 18.044 47.5379 17.934 47.2402C17.7535 46.7521 17.7085 46.2519 17.8195 45.7421C17.9381 45.1966 18.2461 44.7796 18.7235 44.4998C19.2756 44.177 19.8713 44.033 20.5076 44.1781C21.3257 44.3651 21.798 44.8982 21.9727 45.7053C22.0077 45.8683 22.0125 46.0367 22.0315 46.2024ZM21.1356 46.5475L21.1119 46.5441V46.4458C21.0985 45.9659 21.0047 45.5087 20.7183 45.11C20.5062 44.814 20.2223 44.6284 19.8583 44.5765C19.265 44.4919 18.8772 44.8439 18.7486 45.3221C18.5809 45.9466 18.6335 46.5637 18.893 47.156C19.0549 47.5251 19.3107 47.8129 19.7036 47.9524C20.3161 48.17 20.871 47.882 21.026 47.2532C21.083 47.0233 21.1002 46.7833 21.1356 46.5475Z" fill="#4F372B"/>
<path fill-rule="evenodd" clip-rule="evenodd" d="M36.312 19.5308C36.7337 20.75 37.0369 21.9948 37.137 23.2845C37.2607 24.885 37.2043 26.4745 36.8668 28.0485L36.8235 28.1744C36.7176 28.1747 36.6096 28.1613 36.5062 28.1775C35.632 28.3149 34.7589 28.4573 33.8854 28.5989C32.9824 28.7453 32.0787 28.8859 31.1774 29.042C30.858 29.097 30.4627 29.0313 30.3338 29.4727L30.2719 29.4937L30.3156 26.8544L30.2712 20.486L30.692 20.4139C31.3798 20.3014 32.0677 20.187 32.7566 20.0773C33.5781 19.947 34.4004 19.8199 35.2226 19.6927C35.5856 19.637 35.949 19.5851 36.312 19.5308Z" fill="#439934"/>
<path fill-rule="evenodd" clip-rule="evenodd" d="M29.4037 37.188C28.9599 36.8065 28.5007 36.4418 28.0755 36.0403C25.7868 33.8815 24.1124 31.3402 23.2877 28.2763C23.0605 27.4334 22.9092 26.5765 22.8604 25.7054C22.8261 25.0956 22.7769 24.4806 22.8202 23.8739C22.9347 22.2607 23.1681 20.6629 23.6411 19.1088L23.6672 19.0728C23.7133 19.1339 23.7793 19.1883 23.8026 19.2573C24.2646 20.6172 24.7229 21.9785 25.179 23.3408C26.6121 27.6208 28.0435 31.9018 29.479 36.1812C29.5072 36.2647 29.5797 36.3331 29.632 36.4084L29.4037 37.188Z" fill="#45A538"/>
<path fill-rule="evenodd" clip-rule="evenodd" d="M36.3119 19.5307C35.9485 19.5847 35.5852 19.6369 35.2225 19.6926C34.4003 19.8198 33.578 19.947 32.7565 20.0773C32.0679 20.1866 31.3801 20.3011 30.6919 20.4138L30.2711 20.486L30.2677 20.2117C30.2536 19.9862 30.2302 19.7607 30.2271 19.5352L30.18 15.2198C30.169 14.3195 30.1525 13.4192 30.1343 12.5193C30.123 11.96 30.111 11.4003 30.0859 10.8418C30.0721 10.5417 30.0236 10.2429 30.0044 9.94285C29.993 9.77028 30.0082 9.59635 30.012 9.4231C30.2265 9.83869 30.4365 10.2574 30.6568 10.6699C31.005 11.322 31.5602 11.8025 32.0604 12.3268C34.0355 14.3999 35.4377 16.8089 36.3119 19.5307Z" fill="#46A037"/>
<path fill-rule="evenodd" clip-rule="evenodd" d="M30.2723 29.4936L30.3342 29.4727C30.4631 29.0313 30.8584 29.097 31.1778 29.042C32.0791 28.8859 32.9828 28.7453 33.8858 28.5989C34.7593 28.4576 35.6324 28.3153 36.5066 28.1774C36.61 28.1613 36.718 28.1747 36.8238 28.1743C36.6606 28.7573 36.532 29.353 36.3247 29.9199C36.0893 30.5627 35.8046 31.1904 35.5025 31.8057C35.0508 32.7252 34.4881 33.5832 33.8343 34.3694C33.3303 34.9751 32.7686 35.5357 32.2059 36.0888C31.8945 36.3944 31.528 36.6436 31.1863 36.9186L31.0977 36.8581L30.779 36.5859L30.4493 35.8626C30.2221 35.0163 30.1032 34.1549 30.0833 33.279L30.0894 33.1319L30.1345 32.4946C30.1493 32.277 30.1692 32.0597 30.1785 31.8421C30.2115 31.0598 30.241 30.2767 30.2723 29.4936Z" fill="#409433"/>
<path fill-rule="evenodd" clip-rule="evenodd" d="M30.2721 29.4936C30.2412 30.2767 30.2116 31.0601 30.1783 31.8432C30.169 32.0611 30.1494 32.2784 30.1343 32.4956L29.9336 32.5716C29.4874 31.2581 29.0408 29.9584 28.6043 28.6556C27.8821 26.4999 27.1688 24.3412 26.4476 22.1848C25.8656 20.4448 25.2785 18.7057 24.6883 16.9681C24.6604 16.887 24.5814 16.823 24.5264 16.7512L25.812 14.3872C25.8563 14.4639 25.9144 14.5357 25.9423 14.6182C26.537 16.3782 27.1306 18.1386 27.7191 19.9006C28.485 22.1934 29.2457 24.4873 30.0109 26.7804C30.0415 26.8719 30.0917 26.9564 30.1398 27.0592L30.3158 26.8543C30.301 27.7343 30.2866 28.6136 30.2721 29.4936Z" fill="#4FAA41"/>
<path fill-rule="evenodd" clip-rule="evenodd" d="M24.5261 16.7512C24.5815 16.8231 24.6605 16.887 24.688 16.9681C25.2782 18.7058 25.8654 20.4445 26.4473 22.1849C27.1685 24.3412 27.8818 26.5 28.604 28.6556C29.0406 29.9584 29.4871 31.2578 29.9333 32.5716L30.1341 32.4957L30.089 33.133L30.0481 33.2798C29.9783 33.9772 29.9196 34.6761 29.8343 35.3722C29.7917 35.7211 29.7006 36.0634 29.6315 36.4086C29.5796 36.3333 29.5067 36.2649 29.4785 36.1813C28.0427 31.902 26.6117 27.6209 25.1786 23.3409C24.7224 21.9786 24.2638 20.6174 23.8022 19.2575C23.7788 19.1884 23.7128 19.1341 23.6667 19.0729L24.5261 16.7512Z" fill="#4AA73C"/>
<path fill-rule="evenodd" clip-rule="evenodd" d="M30.3156 26.8544L30.1396 27.0593C30.0915 26.9565 30.0413 26.8719 30.0107 26.7805C29.2455 24.4873 28.4848 22.1935 27.7189 19.9007C27.1304 18.1386 26.5367 16.3783 25.942 14.6183C25.9142 14.5358 25.8561 14.4639 25.8118 14.3873L27.4016 12.2959C27.4518 12.3626 27.5233 12.4221 27.5491 12.4973C27.9905 13.7898 28.4277 15.0834 28.8629 16.3779C29.2692 17.5872 29.6693 18.7979 30.0805 20.0052C30.108 20.086 30.2039 20.143 30.2678 20.2118L30.2712 20.4861L30.3156 26.8544Z" fill="#57AE47"/>
<path fill-rule="evenodd" clip-rule="evenodd" d="M30.2678 20.2118C30.2035 20.1434 30.108 20.0864 30.0805 20.0052C29.6697 18.798 29.2692 17.5873 28.8629 16.378C28.4277 15.0834 27.9905 13.7899 27.5491 12.4974C27.5233 12.4221 27.4518 12.3626 27.4016 12.296C27.9186 11.7896 28.4195 11.2651 28.9574 10.7821C29.4356 10.3531 29.8199 9.89315 29.8378 9.21493L29.8756 9.07983L30.0117 9.4229C30.0083 9.59615 29.9928 9.77008 30.0041 9.94265C30.0237 10.2427 30.0722 10.5415 30.0856 10.8416C30.1107 11.4001 30.1227 11.9598 30.1341 12.5191C30.1523 13.419 30.1688 14.3193 30.1798 15.2196L30.2269 19.535C30.2303 19.7608 30.254 19.9863 30.2678 20.2118Z" fill="#60B24F"/>
<path fill-rule="evenodd" clip-rule="evenodd" d="M29.6319 36.4082C29.701 36.063 29.7921 35.7207 29.8347 35.3718C29.92 34.676 29.9788 33.9768 30.0485 33.2794L30.0661 33.2766L30.0833 33.2797C30.1032 34.1556 30.2221 35.017 30.4494 35.8633C30.4029 35.9245 30.338 35.9785 30.3132 36.0472C30.1224 36.5856 29.9423 37.1283 29.7505 37.6663C29.7244 37.7399 29.6508 37.7973 29.5996 37.8616L29.4033 37.1878L29.6319 36.4082Z" fill="#A9AA88"/>
<path fill-rule="evenodd" clip-rule="evenodd" d="M29.5996 37.862C29.6508 37.7974 29.7244 37.7403 29.7505 37.6667C29.9423 37.1288 30.1225 36.586 30.3132 36.0477C30.3376 35.9789 30.403 35.925 30.4494 35.8638L30.779 36.587C30.714 36.6791 30.624 36.7627 30.5879 36.8655L29.9568 38.719C29.9306 38.7936 29.8423 38.8458 29.7825 38.9087L29.5996 37.862Z" fill="#B6B598"/>
<path fill-rule="evenodd" clip-rule="evenodd" d="M29.7825 38.9084C29.8419 38.8455 29.9306 38.7932 29.9568 38.7186L30.5879 36.8651C30.6236 36.7623 30.714 36.6788 30.779 36.5867L31.098 36.8586C30.944 37.0109 30.8584 37.1869 30.91 37.4093L30.813 37.7265C30.769 37.7809 30.7051 37.8283 30.6834 37.8905C30.4631 38.5216 30.2531 39.1562 30.031 39.787C30.0028 39.8667 29.9248 39.9296 29.8701 40.0005L29.7825 38.9084Z" fill="#C2C1A7"/>
<path fill-rule="evenodd" clip-rule="evenodd" d="M29.8696 40C29.9246 39.9292 30.0027 39.8663 30.0305 39.7865C30.2526 39.1557 30.4629 38.5212 30.6829 37.89C30.7046 37.8278 30.7685 37.7807 30.8125 37.7261L30.6788 39.1822C30.6431 39.2234 30.5915 39.2595 30.5743 39.3073L30.1295 40.5819C30.0982 40.6689 30.0384 40.7466 29.9917 40.8281C29.9501 40.7738 29.8758 40.7212 29.8724 40.6648C29.8593 40.4441 29.8686 40.2217 29.8696 40Z" fill="#CECDB7"/>
<path fill-rule="evenodd" clip-rule="evenodd" d="M29.9922 40.8285C30.0389 40.747 30.0987 40.6693 30.13 40.5824L30.5748 39.3077C30.592 39.2596 30.6439 39.2239 30.6793 39.1826L30.6828 40.1382L30.3627 40.9588L29.9922 40.8285Z" fill="#DBDAC7"/>
<path fill-rule="evenodd" clip-rule="evenodd" d="M30.3625 40.9587L30.6826 40.1382L30.7486 41.1089L30.3625 40.9587Z" fill="#EBE9DC"/>
<path fill-rule="evenodd" clip-rule="evenodd" d="M30.9097 37.4091C30.8585 37.187 30.9437 37.011 31.0977 36.8584L31.1864 36.9189L30.9097 37.4091Z" fill="#CECDB7"/>
<path fill-rule="evenodd" clip-rule="evenodd" d="M30.0833 33.2802L30.0661 33.2771L30.0486 33.2798L30.0895 33.1331L30.0833 33.2802Z" fill="#4FAA41"/>
</g>
<defs>
<clipPath id="clip0_193_287">
<rect width="60" height="60" rx="10" fill="white"/>
</clipPath>
</defs>
</svg>
