<svg width="60" height="60" viewBox="0 0 60 60" fill="none" xmlns="http://www.w3.org/2000/svg">
<g clip-path="url(#clip0_193_222)">
<path d="M51 0H9C4.02944 0 0 4.02944 0 9V51C0 55.9706 4.02944 60 9 60H51C55.9706 60 60 55.9706 60 51V9C60 4.02944 55.9706 0 51 0Z" fill="white"/>
<path d="M5.78164 40.335H7.38633V33.9979L9.8707 39.5225C10.1637 40.1913 10.5648 40.4276 11.352 40.4276C12.1391 40.4276 12.525 40.1913 12.818 39.5225L15.3023 33.9979V40.335H16.907V34.0085C16.907 33.3913 16.6602 33.0925 16.1508 32.9386C14.9316 32.5581 14.1137 32.8874 13.7434 33.7104L11.3055 39.1628L8.94492 33.71C8.58984 32.8874 7.75664 32.5581 6.5375 32.9382C6.02813 33.0925 5.78125 33.3909 5.78125 34.0081L5.78164 40.335ZM18.2418 35.1764H19.8461V38.6679C19.8312 38.8573 19.907 39.3026 20.7859 39.3167C21.2344 39.3237 24.2477 39.3167 24.2758 39.3167V35.1593H25.884C25.8914 35.1593 25.8824 40.8288 25.8824 40.8522C25.891 42.2507 24.1477 42.5542 23.3437 42.5776H18.2766V41.4979C18.2852 41.4979 23.3402 41.4991 23.3527 41.4975C24.3859 41.3886 24.2637 40.8753 24.2633 40.7026V40.2815H20.8527C19.266 40.2671 18.2551 39.5745 18.2422 38.7776C18.2414 38.7046 18.277 35.2116 18.2418 35.1764Z" fill="#00618A"/>
<path d="M27.1211 40.3351H31.7352C32.2754 40.3351 32.8004 40.2222 33.2168 40.0269C33.9109 39.7082 34.2504 39.2761 34.2504 38.7097V37.5371C34.2504 37.0742 33.8648 36.6417 33.1086 36.3542C32.7074 36.1996 32.2133 36.1179 31.7348 36.1179H29.7902C29.1422 36.1179 28.8336 35.9226 28.7566 35.4906C28.7414 35.439 28.7414 35.398 28.7414 35.3464V34.616C28.7414 34.575 28.7414 34.5335 28.7566 34.4824C28.8336 34.1531 29.0035 34.0605 29.5746 34.0089L29.7289 33.9988H34.3121V32.9292H29.8063C29.1582 32.9292 28.8187 32.9703 28.5102 33.0628C27.5535 33.3613 27.1363 33.8343 27.1363 34.6574V35.5933C27.1363 36.3136 27.9547 36.9308 29.3277 37.075C29.4824 37.0847 29.6363 37.0957 29.7906 37.0957H31.4574C31.5191 37.0957 31.5809 37.0957 31.6273 37.1054C32.1367 37.1464 32.3523 37.2394 32.507 37.4242C32.5996 37.5167 32.6301 37.6097 32.6301 37.7121V38.6484C32.6301 38.7613 32.5531 38.9054 32.3988 39.0289C32.2602 39.1523 32.0285 39.2347 31.7199 39.2554L31.55 39.2656H27.1211V40.3351ZM44.2621 38.4734C44.2621 39.5738 45.0801 40.191 46.7309 40.3148C46.8852 40.3249 47.0395 40.3351 47.1937 40.3351H51.3758V39.2656H47.1633C46.2219 39.2656 45.8672 39.0289 45.8672 38.4628V32.9285H44.2625L44.2621 38.4734ZM35.2746 38.5289V34.7144C35.2746 33.7457 35.9551 33.1578 37.3004 32.9722C37.4395 32.9515 37.5945 32.9414 37.7332 32.9414H40.7797C40.9344 32.9414 41.0734 32.9515 41.2277 32.9722C42.573 33.1578 43.2539 33.7453 43.2539 34.7144V38.5289C43.2539 39.3156 42.9648 39.7359 42.2988 40.0101L43.8801 41.4371H42.0164L40.7375 40.2824L39.45 40.364H37.7332C37.4395 40.364 37.1305 40.323 36.7902 40.23C35.7695 39.9519 35.2746 39.4156 35.2746 38.5289ZM37.0066 38.4363C37.0066 38.4878 37.0219 38.5398 37.0375 38.6015C37.1301 39.0449 37.548 39.2921 38.1816 39.2921H39.6395L38.3004 38.0832H40.1641L41.3316 39.1378C41.5473 39.0226 41.6887 38.8476 41.7383 38.6222C41.7535 38.5707 41.7535 38.5191 41.7535 38.4675V34.8082C41.7535 34.7671 41.7535 34.7152 41.7383 34.6636C41.6453 34.2511 41.2277 34.0144 40.6094 34.0144H38.1812C37.4703 34.0144 37.0062 34.3238 37.0062 34.8082L37.0066 38.4363Z" fill="#E48E00"/>
<path d="M52.7875 31.1532C51.8012 31.1262 51.0477 31.218 50.4032 31.4895C50.2199 31.5669 49.9282 31.5688 49.8985 31.7981C49.9989 31.904 50.0145 32.0614 50.0946 32.1911C50.2485 32.4399 50.5082 32.7735 50.7399 32.9481C50.9926 33.1391 51.2535 33.3438 51.5254 33.5094C52.0078 33.804 52.5469 33.9719 53.0121 34.2665C53.286 34.4407 53.5578 34.6594 53.8254 34.8559C53.9578 34.9524 54.0461 35.1036 54.2184 35.1641V35.1364C54.1282 35.0215 54.1047 34.8637 54.0219 34.7434L53.6571 34.3786C53.3004 33.9051 52.8481 33.4899 52.3664 33.1446C51.9828 32.8692 51.1242 32.4969 50.9641 32.0505L50.936 32.0227C51.2078 31.9919 51.5266 31.8934 51.7774 31.8262C52.1992 31.713 52.5762 31.7422 53.0117 31.6297L53.6008 31.461V31.3493C53.3809 31.1235 53.2235 30.8243 52.9836 30.62C52.3559 30.0852 51.6699 29.5508 50.9641 29.1047C50.5727 28.8579 50.0887 28.6973 49.6735 28.488C49.5344 28.4172 49.2891 28.3809 49.1965 28.2633C48.9782 27.9856 48.8598 27.6337 48.6914 27.3098C48.3399 26.6321 47.9938 25.8915 47.6817 25.1778C47.4692 24.6915 47.3301 24.2118 47.0649 23.7755C45.791 21.6813 44.4199 20.4172 42.2961 19.1751C41.8442 18.9106 41.3 18.8067 40.7254 18.6704L39.7996 18.6141C39.6117 18.5356 39.4157 18.3051 39.2387 18.1934C38.5348 17.7489 36.7301 16.7821 36.209 18.0536C35.8801 18.8559 36.7012 19.6387 36.9946 20.0454C37.2004 20.3305 37.4645 20.6501 37.6117 20.9708C37.7086 21.1817 37.725 21.393 37.8082 21.6161C38.0117 22.1653 38.1895 22.7633 38.4531 23.2708C38.5864 23.5278 38.7336 23.7985 38.902 24.0282C39.0051 24.1688 39.1824 24.2313 39.2102 24.4489C39.0371 24.6911 39.027 25.0676 38.9297 25.3743C38.4914 26.7567 38.6567 28.4751 39.2946 29.4981C39.4903 29.8126 39.9512 30.486 40.5848 30.2274C41.1391 30.0016 41.0157 29.302 41.1742 28.6844C41.2102 28.545 41.1879 28.4419 41.2582 28.3481V28.3762L41.7633 29.386C42.1371 29.988 42.8 30.6165 43.3621 31.0411C43.6535 31.261 43.8832 31.6419 44.2598 31.7704V31.7419H44.2321C44.1586 31.6282 44.0449 31.5813 43.9512 31.4895C43.7317 31.2743 43.4875 31.0071 43.3063 30.7602C42.7949 30.0665 42.3434 29.3067 41.9317 28.5161C41.7352 28.1387 41.5645 27.7223 41.3989 27.338C41.3348 27.1899 41.3356 26.9657 41.2028 26.8895C41.0207 27.1708 40.7539 27.3985 40.6133 27.7309C40.3891 28.2622 40.3602 28.9102 40.277 29.5821L40.2207 29.6098C39.8297 29.5157 39.6926 29.1133 39.5473 28.7684C39.1801 27.8962 39.1117 26.4911 39.4352 25.4868C39.5188 25.2266 39.8965 24.4083 39.7434 24.168C39.6703 23.9286 39.4293 23.7903 39.2949 23.6067C39.1281 23.3805 38.9614 23.0829 38.8461 22.8212C38.5453 22.1411 38.4051 21.3774 38.0891 20.6895C37.9375 20.3606 37.6821 20.0282 37.4719 19.736C37.2395 19.4118 36.9789 19.1735 36.7985 18.7821C36.7344 18.643 36.6473 18.42 36.7422 18.277C36.7723 18.1805 36.8157 18.1403 36.911 18.1087C37.0735 17.9833 37.5266 18.1505 37.6961 18.2208C38.1461 18.4079 38.5215 18.5856 38.9028 18.838C39.0856 18.9594 39.2703 19.1938 39.4918 19.2587H39.7442C40.1391 19.3493 40.5817 19.2864 40.9504 19.3985C41.6028 19.5969 42.1871 19.9051 42.7176 20.2403C44.3344 21.2614 45.6559 22.7145 46.5606 24.4481C46.7059 24.7274 46.7692 24.9934 46.8969 25.2895C47.1555 25.8864 47.4813 26.5008 47.7383 27.0848C47.9949 27.6672 48.2453 28.2551 48.6082 28.7399C48.7989 28.9946 49.5356 29.1313 49.8703 29.2727C50.1051 29.3719 50.4895 29.4755 50.7117 29.609C51.1364 29.8653 51.5481 30.1704 51.9461 30.4508C52.1449 30.5922 52.7571 30.8997 52.7875 31.1532ZM40.2489 20.4661C40.0434 20.4622 39.8977 20.4887 39.7438 20.5223V20.5501H39.7719C39.8699 20.752 40.043 20.8817 40.1645 21.0551L40.4453 21.6442L40.4731 21.6165C40.6469 21.4942 40.7262 21.2985 40.7254 20.9993C40.6555 20.9258 40.6453 20.834 40.5852 20.7469C40.5055 20.6297 40.35 20.5641 40.2489 20.4661Z" fill="#00618A"/>
</g>
<defs>
<clipPath id="clip0_193_222">
<rect width="60" height="60" rx="10" fill="white"/>
</clipPath>
</defs>
</svg>
