<svg width="60" height="60" viewBox="0 0 60 60" fill="none" xmlns="http://www.w3.org/2000/svg">
<g clip-path="url(#clip0_193_151)">
<path d="M51 0H9C4.02944 0 0 4.02944 0 9V51C0 55.9706 4.02944 60 9 60H51C55.9706 60 60 55.9706 60 51V9C60 4.02944 55.9706 0 51 0Z" fill="white"/>
<g clip-path="url(#clip1_193_151)">
<path d="M28.1519 9.08708C29.2519 8.46421 30.6544 8.46146 31.7269 9.08708L48.1499 18.345C49.1771 18.9225 49.8646 20.0678 49.8549 21.2517V39.8142C49.8618 41.0476 49.1069 42.2177 48.0234 42.7842L31.6884 51.9995C31.1297 52.3082 30.4985 52.4617 29.8604 52.4441C29.2223 52.4264 28.6006 52.2383 28.0598 51.8991L23.1579 49.0666C22.8238 48.8672 22.4484 48.7091 22.2119 48.386C22.4209 48.1055 22.7922 48.0697 23.0947 47.946C23.7767 47.7287 24.4009 47.396 25.0279 47.044C25.1861 46.934 25.3799 46.9752 25.5312 47.0742L29.7112 49.4915C30.0096 49.6633 30.3121 49.4365 30.5678 49.2921L46.6072 40.2405C46.8052 40.1442 46.9152 39.9352 46.8987 39.718V21.3342C46.9207 21.0867 46.7791 20.8612 46.5549 20.7608L30.2612 11.5855C30.1673 11.5205 30.0559 11.4856 29.9417 11.4854C29.8275 11.4851 29.716 11.5195 29.6218 11.5841L13.3514 20.7787C13.1314 20.8791 12.9802 21.1018 13.0077 21.3493V39.7331C12.9884 39.9503 13.1039 40.1552 13.3033 40.2487L17.6511 42.7031C18.4678 43.1431 19.4702 43.3906 20.3694 43.0675C20.7629 42.9192 21.1017 42.6541 21.3404 42.3078C21.579 41.9616 21.7061 41.5506 21.7046 41.1301L21.7087 22.8563C21.6894 22.5855 21.9452 22.3613 22.2078 22.3888H24.2978C24.5728 22.382 24.7887 22.6735 24.7516 22.9457L24.7474 41.335C24.7488 42.9685 24.0778 44.745 22.5667 45.5466C20.7049 46.5091 18.4032 46.307 16.5634 45.3816L11.8884 42.7966C10.7884 42.2466 10.0501 41.0586 10.0569 39.8266V21.2641C10.0615 20.6608 10.2274 20.0697 10.5373 19.552C10.8473 19.0344 11.29 18.6091 11.8197 18.3202L28.1519 9.08708ZM32.8874 21.9543C35.2621 21.8168 37.8044 21.8636 39.9412 23.0337C41.5953 23.9302 42.5124 25.8112 42.5427 27.651C42.4959 27.8985 42.2374 28.036 42.0009 28.0181C41.3134 28.0167 40.6232 28.0277 39.9329 28.014C39.6401 28.025 39.4709 27.7555 39.4338 27.497C39.2358 26.617 38.7559 25.7466 37.9282 25.3217C36.6577 24.6851 35.1837 24.7167 33.7977 24.7305C32.7857 24.7855 31.6981 24.8721 30.8414 25.4661C30.1814 25.9171 29.9834 26.8411 30.2186 27.5588C30.4386 28.0855 31.0477 28.2546 31.5441 28.4113C34.4068 29.1593 37.4387 29.0988 40.2478 30.071C41.4097 30.4725 42.5468 31.2535 42.9456 32.4703C43.4653 34.1011 43.2384 36.0508 42.0793 37.3598C41.1388 38.4378 39.7693 39.0098 38.4012 39.3426C36.5821 39.7482 34.6956 39.7578 32.8489 39.5763C31.1123 39.3783 29.3056 38.9218 27.9649 37.7393C26.8182 36.7438 26.2599 35.1928 26.3149 33.6968C26.3287 33.4438 26.5803 33.2678 26.8237 33.2885H28.8862C29.1639 33.2692 29.3674 33.5085 29.3812 33.7697C29.5091 34.5947 29.8239 35.4885 30.5554 35.9697C31.9662 36.88 33.7358 36.8167 35.3501 36.8428C36.6879 36.7837 38.1894 36.7658 39.2826 35.8803C39.8601 35.3757 40.0292 34.5328 39.8738 33.8068C39.7047 33.1936 39.0488 32.909 38.4988 32.7068C35.6732 31.8131 32.6069 32.1376 29.8088 31.1256C28.6731 30.7241 27.5744 29.9651 27.1386 28.7977C26.5294 27.1477 26.8086 25.1031 28.0914 23.8381C29.3289 22.58 31.1439 22.0946 32.8627 21.9213L32.8874 21.9543Z" fill="#8CC84B"/>
</g>
</g>
<defs>
<clipPath id="clip0_193_151">
<rect width="60" height="60" rx="10" fill="white"/>
</clipPath>
<clipPath id="clip1_193_151">
<rect width="44" height="44" fill="white" transform="translate(8 8.5)"/>
</clipPath>
</defs>
</svg>
