<svg width="60" height="60" viewBox="0 0 60 60" fill="none" xmlns="http://www.w3.org/2000/svg">
<g clip-path="url(#clip0_190_139)">
<path d="M51 0H9C4.02944 0 0 4.02944 0 9V51C0 55.9706 4.02944 60 9 60H51C55.9706 60 60 55.9706 60 51V9C60 4.02944 55.9706 0 51 0Z" fill="white"/>
<path d="M28.2059 27.3759C27.5941 27.7291 27.1008 28.2558 26.7883 28.8894C26.4759 29.523 26.3583 30.235 26.4505 30.9354C26.5427 31.6359 26.8406 32.2932 27.3064 32.8243C27.7722 33.3555 28.3851 33.7365 29.0674 33.9194C29.7498 34.1022 30.4711 34.0786 31.1401 33.8515C31.809 33.6244 32.3956 33.204 32.8257 32.6435C33.2557 32.083 33.5099 31.4076 33.5561 30.7026C33.6022 29.9977 33.4383 29.2949 33.0851 28.6831C32.6113 27.8628 31.8312 27.2642 30.9162 27.0191C30.0012 26.7739 29.0263 26.9023 28.2059 27.3759ZM44.2153 31.2512C43.9808 30.9832 43.7334 30.7145 43.473 30.4451C43.6549 30.2539 43.8309 30.0629 44.001 29.8721C47.2127 26.2635 48.5681 22.6447 47.3122 20.469C46.1078 18.383 42.5253 17.7614 38.0403 18.6334C37.5985 18.7198 37.1592 18.8173 36.7223 18.9259C36.6387 18.6376 36.5497 18.3509 36.4554 18.0659C34.9339 13.4808 32.4761 10.4984 29.964 10.5C27.5552 10.5011 25.2271 13.2942 23.7419 17.615C23.5958 18.0413 23.4606 18.4711 23.3364 18.9044C23.0443 18.8328 22.751 18.7666 22.4564 18.7058C17.7244 17.7343 13.9131 18.3741 12.6595 20.551C11.4575 22.6385 12.7146 26.0507 15.7165 29.4952C16.0143 29.8361 16.3204 30.1692 16.635 30.4948C16.2641 30.8768 15.913 31.2585 15.5857 31.6382C12.6565 35.0342 11.4713 38.3905 12.6714 40.469C13.9107 42.616 17.6684 43.3177 22.2422 42.4177C22.6128 42.3442 22.9814 42.2616 23.348 42.1697C23.4823 42.6385 23.6296 43.1031 23.7899 43.5637C25.2685 47.7978 27.5836 50.501 29.9839 50.5001C32.4628 50.4987 34.9478 47.5944 36.4534 43.1826C36.5723 42.834 36.6848 42.4719 36.7915 42.0991C37.265 42.2169 37.7416 42.3215 38.2212 42.4127C42.6279 43.2465 46.1262 42.5907 47.3241 40.5107C48.5611 38.3622 47.2857 34.7587 44.2153 31.2512ZM14.1403 21.4037C14.912 20.0637 18.0268 19.5409 22.1125 20.3797C22.3736 20.4334 22.6392 20.4934 22.9092 20.5597C22.5103 22.3242 22.2289 24.1132 22.0667 25.915C20.5925 26.9521 19.187 28.0836 17.8589 29.3022C17.5663 28.9996 17.2815 28.6897 17.0046 28.3724C14.4324 25.421 13.4159 22.6616 14.1403 21.4037ZM21.9136 32.8599C20.8925 32.0867 19.9435 31.2946 19.0822 30.4979C19.9429 29.7061 20.8925 28.9167 21.9115 28.1456C21.8749 28.9311 21.8568 29.7172 21.8571 30.504C21.8576 31.2895 21.8765 32.0748 21.9136 32.8599ZM21.9124 40.7411C20.1789 41.1265 18.3893 41.1897 16.633 40.9274C16.1515 40.8899 15.6828 40.754 15.2559 40.5283C14.829 40.3025 14.453 39.9916 14.151 39.6147C13.4228 38.3534 14.3745 35.6587 16.8796 32.7543C17.1946 32.3903 17.5198 32.0358 17.8554 31.6908C19.1837 32.9158 20.5915 34.0517 22.0697 35.0909C22.2341 36.9157 22.5188 38.7277 22.9221 40.5149C22.5875 40.5986 22.2509 40.674 21.9124 40.7411ZM36.1147 24.6624C35.4439 24.2397 34.7648 23.8306 34.0774 23.4351C33.401 23.0457 32.7165 22.671 32.0238 22.3109C33.2098 21.8123 34.3757 21.3864 35.5011 21.0393C35.7665 22.2359 35.9712 23.4451 36.1147 24.6624ZM25.3579 18.1704C26.6304 14.4681 28.5132 12.2094 29.965 12.2087C31.5111 12.208 33.52 14.6453 34.8336 18.604C34.9189 18.8621 34.9996 19.1216 35.0756 19.3826C33.3498 19.9178 31.6614 20.5667 30.0213 21.325C28.388 20.5578 26.7049 19.9017 24.9833 19.3611C25.0984 18.9612 25.2233 18.5643 25.3579 18.1704ZM24.5572 21.018C25.7311 21.3876 26.8857 21.8161 28.0165 22.302C26.6154 23.0251 25.2505 23.8127 23.9218 24.6648C24.0823 23.3888 24.2959 22.1663 24.5572 21.018ZM23.9247 36.3394C24.5873 36.7635 25.2596 37.172 25.9416 37.5648C26.6372 37.9653 27.3421 38.349 28.0563 38.7159C26.9169 39.2186 25.7524 39.6625 24.5674 40.0458C24.3031 38.8816 24.0872 37.6376 23.9247 36.3394ZM34.8361 42.6304C34.304 44.3246 33.4646 45.9065 32.3599 47.2969C32.0869 47.6952 31.735 48.0333 31.3262 48.2903C30.9174 48.5473 30.4602 48.7177 29.983 48.791C28.5266 48.7918 26.6677 46.621 25.4031 43.0001C25.2542 42.572 25.1172 42.14 24.9921 41.7041C26.7219 41.146 28.4119 40.4714 30.0505 39.6847C31.704 40.4479 33.4059 41.1016 35.1452 41.6417C35.0502 41.9737 34.9472 42.3032 34.8361 42.6304ZM35.5606 39.9819C34.4222 39.6299 33.2394 39.1969 32.0363 38.6909C32.7145 38.334 33.3977 37.957 34.0857 37.5601C34.7918 37.1523 35.4799 36.7344 36.1499 36.3063C36.0165 37.5408 35.8198 38.7676 35.5606 39.9819ZM36.4532 30.4966C36.4546 31.7112 36.4167 32.9248 36.3394 34.1375C35.354 34.8043 34.3138 35.4555 33.2314 36.0803C32.1535 36.7026 31.0855 37.2745 30.0379 37.7921C28.9355 37.2638 27.8543 36.6945 26.7944 36.0841C25.7404 35.4775 24.7107 34.8315 23.705 34.1461C23.6131 32.9338 23.5668 31.7194 23.5661 30.5027C23.5653 29.2869 23.6108 28.0727 23.7022 26.8594C24.6873 26.1866 25.7201 25.536 26.7878 24.9196C27.8604 24.3002 28.9418 23.7307 30.0172 23.2146C31.106 23.7438 32.1752 24.3109 33.2248 24.9159C34.278 25.5212 35.3107 26.1604 36.3228 26.8333C36.4097 28.0525 36.4531 29.2736 36.4532 30.4966ZM38.3666 20.3109C42.2093 19.5635 45.1066 20.0663 45.8324 21.3234C46.6056 22.6626 45.4975 25.6204 42.7248 28.7361C42.5716 28.908 42.4125 29.0807 42.2478 29.254C40.8968 28.0328 39.4642 26.9049 37.9599 25.8783C37.8081 24.0962 37.5372 22.3263 37.149 20.5804C37.5628 20.4786 37.9686 20.3888 38.3666 20.3109ZM38.1069 28.0803C39.1215 28.8211 40.0971 29.6141 41.0296 30.456C40.1012 31.3117 39.1287 32.1184 38.1161 32.8726C38.1471 32.0807 38.1624 31.2885 38.1619 30.4958C38.1615 29.6904 38.1432 28.8853 38.1069 28.0803ZM45.8431 39.6578C45.1161 40.9202 42.3073 41.4465 38.5386 40.7335C38.1067 40.652 37.6636 40.5549 37.2091 40.4424C37.588 38.674 37.8469 36.8821 37.9841 35.0789C39.4858 34.0343 40.9139 32.8877 42.2582 31.6471C42.4935 31.8915 42.7172 32.1347 42.9295 32.3768C44.1316 33.6839 45.0829 35.201 45.7356 36.8525C45.9444 37.2879 46.0616 37.7615 46.0801 38.2441C46.0986 38.7266 46.0179 39.2077 45.8431 39.6578Z" fill="#61DAFB"/>
</g>
<defs>
<clipPath id="clip0_190_139">
<rect width="60" height="60" rx="10" fill="white"/>
</clipPath>
</defs>
</svg>
