<svg width="60" height="60" viewBox="0 0 60 60" fill="none" xmlns="http://www.w3.org/2000/svg">
<g clip-path="url(#clip0_193_276)">
<path d="M51 0H9C4.02944 0 0 4.02944 0 9V51C0 55.9706 4.02944 60 9 60H51C55.9706 60 60 55.9706 60 51V9C60 4.02944 55.9706 0 51 0Z" fill="white"/>
<g clip-path="url(#clip1_193_276)">
<path fill-rule="evenodd" clip-rule="evenodd" d="M44.6624 14.3281L45.6083 15.5735C45.8567 15.9023 45.7946 16.3734 45.4659 16.6218L44.4615 17.3851C44.6441 17.8709 44.761 18.3895 44.8085 18.9191L45.9516 19.0761C46.3607 19.1309 46.6456 19.5108 46.5908 19.9198L46.379 21.4721C46.3242 21.8811 45.9443 22.1696 45.5353 22.1112L44.2862 21.9396C44.0634 22.4253 43.7785 22.8709 43.4425 23.269L44.1437 24.1894C44.3921 24.5181 44.3264 24.9892 43.9976 25.2376L42.7522 26.1836C42.4235 26.4319 41.9523 26.3662 41.704 26.0411L40.9406 25.0367C40.4512 25.2193 39.9363 25.3362 39.403 25.3837L39.246 26.5269C39.1912 26.9359 38.8113 27.2208 38.4023 27.166L36.85 26.9542C36.441 26.8994 36.1561 26.5196 36.2109 26.1105L36.3825 24.8614C35.9004 24.6386 35.4512 24.3537 35.0531 24.0214L34.1327 24.719C33.804 24.9673 33.3329 24.9052 33.0845 24.5765L32.1385 23.3311C31.8902 23.0024 31.9523 22.5312 32.281 22.2829L33.2854 21.5195C33.1028 21.0301 32.9859 20.5151 32.9384 19.9856L31.7952 19.8285C31.3862 19.7737 31.0976 19.3939 31.1561 18.9848L31.3679 17.4326C31.4263 17.0235 31.8025 16.7386 32.2116 16.7934L33.4607 16.9651C33.6835 16.483 33.9684 16.0337 34.3007 15.6356L33.6031 14.7153C33.3548 14.3902 33.4169 13.919 33.7456 13.6707L34.991 12.7247C35.3197 12.4764 35.7909 12.5385 36.0392 12.8672L36.8026 13.8716C37.2883 13.6889 37.8069 13.5721 38.3365 13.5246L38.4936 12.3814C38.5484 11.9724 38.9282 11.6838 39.3373 11.7386L40.8895 11.9504C41.2986 12.0052 41.5871 12.3851 41.5287 12.7941L41.357 14.0432C41.8428 14.266 42.2884 14.5509 42.6901 14.8869L43.6105 14.1893C43.9392 13.9373 44.4104 13.9994 44.6624 14.3281ZM17.9566 36.2457V30.2194H21.061C21.6381 30.2194 22.0764 30.2669 22.3795 30.3691C22.6827 30.4677 22.931 30.6503 23.1136 30.917C23.2999 31.1872 23.3949 31.5123 23.3949 31.8958C23.3949 32.2282 23.3218 32.5203 23.1794 32.7614C23.0369 33.0061 22.8397 33.2033 22.5914 33.3531C22.4343 33.448 22.2152 33.5284 21.9376 33.5905C22.1604 33.6672 22.3211 33.7366 22.4197 33.8133C22.4891 33.8644 22.5877 33.9703 22.7155 34.131C22.8434 34.2917 22.931 34.4195 22.9749 34.5072L23.8806 36.2494H21.7769L20.7835 34.4122C20.6556 34.1748 20.5461 34.0178 20.4475 33.9484C20.3123 33.8571 20.1589 33.8096 19.9909 33.8096H19.8266V36.2494H17.9566V36.2457ZM24.5234 46.7388H21.0464L20.5461 48.3751H17.4124L21.1487 38.4444H24.5088L28.2306 48.3751H25.0165L24.5234 46.7388ZM23.8733 44.5876L22.7886 41.0156L21.7002 44.5876H23.8733ZM28.9537 38.4444H34.0597C35.1736 38.4444 36.0064 38.7074 36.5579 39.237C37.1094 39.7666 37.3869 40.5226 37.3869 41.4978C37.3869 42.5021 37.0838 43.2874 36.4812 43.8535C35.8785 44.4196 34.9545 44.7008 33.7163 44.7008H32.0326V48.3751H28.9537V38.4444ZM32.0326 42.6884H32.7887C33.384 42.6884 33.804 42.5861 34.0451 42.378C34.2861 42.1734 34.4066 41.9068 34.4066 41.5891C34.4066 41.2786 34.3007 41.012 34.0925 40.7965C33.8844 40.581 33.4899 40.4715 32.9128 40.4715H32.0326V42.6884ZM38.6287 38.4444H41.7076V48.3751H38.6287V38.4444ZM19.8266 32.6664H20.6118C20.6958 32.6664 20.8602 32.6372 21.1049 32.5824C21.229 32.5569 21.3313 32.4948 21.408 32.3925C21.4884 32.2902 21.5249 32.1734 21.5249 32.0419C21.5249 31.8483 21.4628 31.6949 21.3386 31.5926C21.2144 31.4867 20.9843 31.4356 20.6447 31.4356H19.8266V32.6664ZM24.2386 30.2194H29.224V31.505H26.1086V32.4656H28.9975V33.6927H26.1086V34.8797H29.3153V36.2421H24.2386V30.2194ZM29.7572 34.2515L31.525 34.142C31.5615 34.4305 31.6418 34.646 31.7587 34.7957C31.9523 35.0368 32.2262 35.161 32.5805 35.161C32.8434 35.161 33.0516 35.0989 33.1941 34.9747C33.3365 34.8505 33.4096 34.7044 33.4096 34.5401C33.4096 34.383 33.3402 34.2442 33.205 34.1201C33.0699 33.9959 32.7521 33.8827 32.2518 33.7694C31.4373 33.5868 30.8566 33.3421 30.506 33.039C30.1553 32.7358 29.98 32.3487 29.98 31.8775C29.98 31.5671 30.0713 31.2749 30.2503 31.001C30.4293 30.727 30.6995 30.5079 31.0611 30.3509C31.4227 30.1938 31.9158 30.1171 32.5439 30.1171C33.3146 30.1171 33.899 30.2595 34.3044 30.5481C34.7061 30.8366 34.9472 31.2895 35.0239 31.9177L33.2744 32.0236C33.2269 31.7497 33.1283 31.5488 32.9822 31.4283C32.8325 31.3041 32.6243 31.242 32.365 31.242C32.1495 31.242 31.9851 31.2895 31.8756 31.3808C31.766 31.4721 31.7112 31.5853 31.7112 31.7168C31.7112 31.8118 31.7587 31.8958 31.8464 31.9761C31.934 32.0528 32.1385 32.1295 32.4673 32.1989C33.2817 32.3742 33.8661 32.5532 34.2167 32.7322C34.5673 32.9111 34.8267 33.1339 34.9837 33.4005C35.1444 33.6635 35.2248 33.963 35.2248 34.2917C35.2248 34.6789 35.1188 35.0331 34.9034 35.3582C34.6915 35.6833 34.392 35.9316 34.0085 36.0996C33.625 36.2676 33.1429 36.3516 32.5586 36.3516C31.5359 36.3516 30.8237 36.1544 30.4293 35.76C30.0348 35.3582 29.812 34.8578 29.7572 34.2515ZM35.495 30.2194H41.1598V31.7095H39.2606V36.2457H37.3979V31.7095H35.495V30.2194ZM29.2276 15.9169C28.5593 15.8657 27.8836 15.873 27.2152 15.9388C25.159 16.136 23.1611 16.8847 21.5103 18.1667C19.6001 19.6459 18.1501 21.8592 17.5913 24.792L17.416 25.7088L16.5029 25.8695C15.6081 26.0265 14.8083 26.242 14.107 26.5159C13.4277 26.7789 12.8214 27.1039 12.2918 27.4874C11.8681 27.7942 11.5029 28.1375 11.1925 28.5101C10.2319 29.6606 9.78631 31.1032 9.79727 32.5642C9.80823 34.047 10.2903 35.5445 11.1815 36.7753C11.5139 37.2318 11.8974 37.6519 12.3356 38.0171C12.7812 38.386 13.2816 38.6928 13.844 38.9229C14.1618 39.0543 14.5015 39.1639 14.8557 39.2516V41.9872C14.1253 41.8557 13.4532 41.6585 12.825 41.3991C11.996 41.0558 11.2619 40.6139 10.6154 40.0733C10.0018 39.562 9.46491 38.9813 9.00837 38.3494C7.79214 36.6694 7.13473 34.6168 7.12012 32.5715C7.10551 30.5043 7.74832 28.448 9.1362 26.7825C9.58544 26.242 10.115 25.7453 10.7213 25.307C11.4262 24.7957 12.2334 24.3647 13.1465 24.0104C13.7747 23.7657 14.4467 23.5612 15.1552 23.3968C15.9587 20.2047 17.6717 17.7467 19.874 16.041C21.9339 14.445 24.4139 13.5136 26.9669 13.2689C28.3073 13.1411 29.6659 13.1995 30.9954 13.4479C30.9661 13.5684 30.9406 13.6889 30.926 13.8131L30.9223 13.835C30.8967 14.0432 30.8858 14.2514 30.8968 14.4632C30.6155 14.5728 30.3526 14.7226 30.1152 14.9052L30.1042 14.9125C29.7499 15.1791 29.4504 15.5224 29.2276 15.9169ZM48.5521 22.9293C48.7566 23.1156 48.9538 23.3092 49.1474 23.5174C49.5382 23.9374 49.9071 24.4122 50.2541 24.9418C51.4228 26.7387 52.0218 29.1383 51.9962 31.4867C51.9707 33.7913 51.3498 36.085 50.0788 37.7724C49.2497 38.8717 48.1869 39.7702 46.9122 40.4824C46.0393 40.9718 45.0568 41.3772 43.9867 41.7059V38.8754C44.5638 38.6599 45.1006 38.4188 45.5937 38.1449C46.5543 37.608 47.3395 36.9543 47.9275 36.169C48.8406 34.9528 49.2899 33.2325 49.3081 31.4685C49.33 29.6167 48.8771 27.7577 47.9969 26.4063C47.7449 26.0155 47.4674 25.6649 47.1752 25.3508C47.0619 25.2303 46.9487 25.1171 46.8318 25.0075C46.8501 24.8249 46.8574 24.6386 46.8465 24.4524C47.1277 24.3428 47.3907 24.193 47.6281 24.0104L47.639 24.0031C48.0152 23.7146 48.3293 23.3493 48.5521 22.9293ZM39.2898 16.4063C40.9735 16.6364 42.1496 18.1886 41.9195 19.8723C41.6894 21.5561 40.1371 22.7358 38.4534 22.5057C36.7697 22.2756 35.59 20.7233 35.8237 19.0396C36.0575 17.3559 37.6061 16.1762 39.2898 16.4063Z" fill="#01B5E6"/>
</g>
</g>
<defs>
<clipPath id="clip0_193_276">
<rect width="60" height="60" rx="10" fill="white"/>
</clipPath>
<clipPath id="clip1_193_276">
<rect width="44.8798" height="36.6438" fill="white" transform="translate(7.12012 11.731)"/>
</clipPath>
</defs>
</svg>
