<svg width="60" height="60" viewBox="0 0 60 60" fill="none" xmlns="http://www.w3.org/2000/svg">
<g clip-path="url(#clip0_193_281)">
<rect width="60" height="60" rx="10" fill="#007ACC"/>
<path d="M-3 28.5V60H60V-3H-3V28.5ZM47.7679 25.98C49.2768 26.3302 50.6483 27.1193 51.7092 28.248C52.2933 28.8561 52.801 29.533 53.2212 30.264C53.2212 30.3446 50.4996 32.1842 48.8414 33.2124C48.781 33.2527 48.539 32.9906 48.2719 32.5925C47.9692 32.0702 47.5391 31.6331 47.0218 31.3219C46.5044 31.0108 45.9167 30.8359 45.3134 30.8134C43.4033 30.6823 42.1735 31.6853 42.1836 33.3334C42.1678 33.7437 42.2618 34.1508 42.4558 34.5127C42.8741 35.3846 43.6553 35.9038 46.1047 36.9622C50.6155 38.9026 52.5458 40.1827 53.7454 42.0022C55.086 44.0182 55.3834 47.274 54.4762 49.6831C53.4682 52.3039 50.9986 54.083 47.5058 54.6727C45.9106 54.8554 44.2988 54.8385 42.7078 54.6223C40.2692 54.2204 38.023 53.0496 36.2969 51.2808C35.7173 50.6407 34.5883 48.9725 34.6589 48.8515C34.8429 48.7149 35.0366 48.592 35.2385 48.4836L37.572 47.1934L39.3814 46.145L39.7594 46.7045C40.3973 47.617 41.2091 48.3946 42.1483 48.9926C44.1643 50.051 46.9162 49.9049 48.277 48.6802C48.7339 48.2314 49.0189 47.6366 49.0824 46.9993C49.146 46.362 48.984 45.7226 48.6247 45.1925C48.1207 44.4919 47.1127 43.9022 44.2954 42.6725C41.0446 41.2714 39.6434 40.4045 38.3633 39.0235C37.5641 38.1122 36.9741 37.0371 36.6346 35.8735C36.3813 34.5442 36.3439 33.1828 36.5237 31.8415C37.194 28.7016 39.5477 26.5092 42.985 25.859C44.5768 25.6621 46.1893 25.7063 47.7679 25.9901V25.98ZM32.9806 28.621V31.2014H24.8006V54.5014H18.9996V31.1964H10.7995V28.6764C10.774 27.8074 10.7942 26.9376 10.86 26.0707C10.9003 26.0254 15.9 26.0254 21.948 26.0254H32.9503L32.9806 28.621Z" fill="white"/>
</g>
<defs>
<clipPath id="clip0_193_281">
<rect width="60" height="60" rx="10" fill="white"/>
</clipPath>
</defs>
</svg>
