<svg width="695" height="148" viewBox="0 0 695 148" fill="none" xmlns="http://www.w3.org/2000/svg">
<path d="M105.371 146L95.0195 112.016H42.9688L32.6172 146H0L50.3906 2.64062H87.4023L137.988 146H105.371ZM87.793 86.625L77.4414 53.4219C76.7904 51.2083 75.9115 48.3763 74.8047 44.9258C73.763 41.4102 72.6888 37.862 71.582 34.2812C70.5404 30.6354 69.694 27.4779 69.043 24.8086C68.3919 27.4779 67.4805 30.7982 66.3086 34.7695C65.2018 38.6758 64.1276 42.3867 63.0859 45.9023C62.0443 49.418 61.2956 51.9245 60.8398 53.4219L50.5859 86.625H87.793ZM156.055 3.22656H200.488C219.499 3.22656 233.887 5.89583 243.652 11.2344C253.418 16.5729 258.301 25.9479 258.301 39.3594C258.301 44.763 257.422 49.6458 255.664 54.0078C253.971 58.3698 251.497 61.9505 248.242 64.75C244.987 67.5495 241.016 69.3724 236.328 70.2188V71.1953C241.081 72.1719 245.378 73.8646 249.219 76.2734C253.06 78.6172 256.12 82.0677 258.398 86.625C260.742 91.1172 261.914 97.1068 261.914 104.594C261.914 113.253 259.798 120.674 255.566 126.859C251.335 133.044 245.28 137.797 237.402 141.117C229.59 144.372 220.28 146 209.473 146H156.055V3.22656ZM186.328 59.7695H203.906C212.695 59.7695 218.783 58.4023 222.168 55.668C225.553 52.8685 227.246 48.7669 227.246 43.3633C227.246 37.8945 225.228 33.9883 221.191 31.6445C217.22 29.2357 210.905 28.0312 202.246 28.0312H186.328V59.7695ZM186.328 83.793V121H206.055C215.169 121 221.517 119.242 225.098 115.727C228.678 112.211 230.469 107.491 230.469 101.566C230.469 98.0508 229.688 94.9583 228.125 92.2891C226.562 89.6198 223.926 87.5365 220.215 86.0391C216.569 84.5417 211.523 83.793 205.078 83.793H186.328ZM420.02 74.418C420.02 85.4206 418.652 95.4466 415.918 104.496C413.184 113.48 409.017 121.228 403.418 127.738C397.884 134.249 390.853 139.262 382.324 142.777C373.796 146.228 363.704 147.953 352.051 147.953C340.397 147.953 330.306 146.228 321.777 142.777C313.249 139.262 306.185 134.249 300.586 127.738C295.052 121.228 290.918 113.448 288.184 104.398C285.449 95.349 284.082 85.2904 284.082 74.2227C284.082 59.444 286.491 46.5859 291.309 35.6484C296.191 24.6458 303.678 16.1172 313.77 10.0625C323.861 4.00781 336.686 0.980469 352.246 0.980469C367.741 0.980469 380.469 4.00781 390.43 10.0625C400.456 16.1172 407.878 24.6458 412.695 35.6484C417.578 46.651 420.02 59.5742 420.02 74.418ZM315.82 74.418C315.82 84.3789 317.057 92.9727 319.531 100.199C322.07 107.361 326.009 112.895 331.348 116.801C336.686 120.642 343.587 122.562 352.051 122.562C360.645 122.562 367.611 120.642 372.949 116.801C378.288 112.895 382.161 107.361 384.57 100.199C387.044 92.9727 388.281 84.3789 388.281 74.418C388.281 59.444 385.482 47.6602 379.883 39.0664C374.284 30.4727 365.072 26.1758 352.246 26.1758C343.717 26.1758 336.751 28.1289 331.348 32.0352C326.009 35.8763 322.07 41.4102 319.531 48.6367C317.057 55.7982 315.82 64.3919 315.82 74.418ZM565.82 3.22656V95.6094C565.82 105.44 563.639 114.327 559.277 122.27C554.98 130.147 548.438 136.397 539.648 141.02C530.924 145.642 519.922 147.953 506.641 147.953C487.76 147.953 473.372 143.135 463.477 133.5C453.581 123.865 448.633 111.104 448.633 95.2188V3.22656H478.809V90.6289C478.809 102.413 481.217 110.681 486.035 115.434C490.853 120.186 497.982 122.562 507.422 122.562C514.062 122.562 519.434 121.423 523.535 119.145C527.702 116.866 530.762 113.35 532.715 108.598C534.668 103.845 535.645 97.7904 535.645 90.4336V3.22656H565.82ZM655.859 146H625.586V28.4219H586.816V3.22656H694.629V28.4219H655.859V146Z" fill="#161B22"/>
</svg>
