<svg width="151" height="114" viewBox="0 0 151 114" fill="none" xmlns="http://www.w3.org/2000/svg">
<path d="M34.4199 112.923C34.5976 113.986 34.494 103.772 34.4199 98.5319M34.4199 112.923L5.55287 85.2477M34.4199 112.923L119.023 72.1849M34.4199 98.5319L5.55287 85.2477M34.4199 98.5319L89.4894 64.2143M34.4199 98.5319L2 64.2143M5.55287 85.2477L2 64.2143M119.023 72.1849L89.4894 64.2143M119.023 72.1849L100.814 20.8193M119.023 72.1849L149 37.6459M89.4894 64.2143L100.814 20.8193M89.4894 64.2143H2M2 64.2143L34.4199 7.75649M34.4199 7.75649L100.814 20.8193M34.4199 7.75649L110.807 2M100.814 20.8193L110.807 2M100.814 20.8193L149 37.6459M110.807 2L149 37.6459" stroke="#074339" stroke-width="2"/>
</svg>
