<svg width="519" height="148" viewBox="0 0 519 148" fill="none" xmlns="http://www.w3.org/2000/svg">
<path d="M0.96875 3.22656H45.4023C64.4128 3.22656 78.8008 5.89583 88.5664 11.2344C98.332 16.5729 103.215 25.9479 103.215 39.3594C103.215 44.763 102.336 49.6458 100.578 54.0078C98.8854 58.3698 96.4115 61.9505 93.1562 64.75C89.901 67.5495 85.9297 69.3724 81.2422 70.2188V71.1953C85.9948 72.1719 90.2917 73.8646 94.1328 76.2734C97.974 78.6172 101.034 82.0677 103.312 86.625C105.656 91.1172 106.828 97.1068 106.828 104.594C106.828 113.253 104.712 120.674 100.48 126.859C96.2487 133.044 90.194 137.797 82.3164 141.117C74.5039 144.372 65.194 146 54.3867 146H0.96875V3.22656ZM31.2422 59.7695H48.8203C57.6094 59.7695 63.6966 58.4023 67.082 55.668C70.4674 52.8685 72.1602 48.7669 72.1602 43.3633C72.1602 37.8945 70.1419 33.9883 66.1055 31.6445C62.1341 29.2357 55.819 28.0312 47.1602 28.0312H31.2422V59.7695ZM31.2422 83.793V121H50.9688C60.0833 121 66.431 119.242 70.0117 115.727C73.5924 112.211 75.3828 107.491 75.3828 101.566C75.3828 98.0508 74.6016 94.9583 73.0391 92.2891C71.4766 89.6198 68.8398 87.5365 65.1289 86.0391C61.4831 84.5417 56.4375 83.793 49.9922 83.793H31.2422ZM135.344 146V3.22656H165.617V121H223.527V146H135.344ZM378.02 74.418C378.02 85.4206 376.652 95.4466 373.918 104.496C371.184 113.48 367.017 121.228 361.418 127.738C355.884 134.249 348.853 139.262 340.324 142.777C331.796 146.228 321.704 147.953 310.051 147.953C298.397 147.953 288.306 146.228 279.777 142.777C271.249 139.262 264.185 134.249 258.586 127.738C253.052 121.228 248.918 113.448 246.184 104.398C243.449 95.349 242.082 85.2904 242.082 74.2227C242.082 59.444 244.491 46.5859 249.309 35.6484C254.191 24.6458 261.678 16.1172 271.77 10.0625C281.861 4.00781 294.686 0.980469 310.246 0.980469C325.741 0.980469 338.469 4.00781 348.43 10.0625C358.456 16.1172 365.878 24.6458 370.695 35.6484C375.578 46.651 378.02 59.5742 378.02 74.418ZM273.82 74.418C273.82 84.3789 275.057 92.9727 277.531 100.199C280.07 107.361 284.009 112.895 289.348 116.801C294.686 120.642 301.587 122.562 310.051 122.562C318.645 122.562 325.611 120.642 330.949 116.801C336.288 112.895 340.161 107.361 342.57 100.199C345.044 92.9727 346.281 84.3789 346.281 74.418C346.281 59.444 343.482 47.6602 337.883 39.0664C332.284 30.4727 323.072 26.1758 310.246 26.1758C301.717 26.1758 294.751 28.1289 289.348 32.0352C284.009 35.8763 280.07 41.4102 277.531 48.6367C275.057 55.7982 273.82 64.3919 273.82 74.418ZM461.809 65.8242H518.449V139.848C510.962 142.322 503.182 144.307 495.109 145.805C487.036 147.237 477.889 147.953 467.668 147.953C453.475 147.953 441.431 145.154 431.535 139.555C421.639 133.956 414.12 125.688 408.977 114.75C403.833 103.812 401.262 90.3685 401.262 74.418C401.262 59.444 404.126 46.4883 409.855 35.5508C415.65 24.6133 424.081 16.1497 435.148 10.1602C446.281 4.17057 459.855 1.17578 475.871 1.17578C483.423 1.17578 490.878 1.98958 498.234 3.61719C505.591 5.24479 512.264 7.36068 518.254 9.96484L508.195 34.1836C503.833 31.9701 498.853 30.1146 493.254 28.6172C487.655 27.1198 481.796 26.3711 475.676 26.3711C466.887 26.3711 459.237 28.3893 452.727 32.4258C446.281 36.4622 441.268 42.1263 437.688 49.418C434.172 56.6445 432.414 65.1732 432.414 75.0039C432.414 84.3138 433.684 92.582 436.223 99.8086C438.762 106.97 442.766 112.602 448.234 116.703C453.703 120.74 460.832 122.758 469.621 122.758C473.918 122.758 477.531 122.562 480.461 122.172C483.456 121.716 486.255 121.26 488.859 120.805V91.0195H461.809V65.8242Z" fill="#161B22"/>
</svg>
