<svg width="471" height="347" viewBox="0 0 471 347" fill="none" xmlns="http://www.w3.org/2000/svg">
<path d="M94.0987 191.714L11.6855 274.86M94.0987 191.714L97.0775 259.332M94.0987 191.714L123.287 270.473M94.0987 191.714L48.3649 185.841M94.0987 191.714L23.1814 326.301M11.6855 274.86L23.1814 326.301M11.6855 274.86L48.3649 185.841M23.1814 326.301L90.6352 329.672M23.1814 326.301L97.0775 259.332M90.6352 329.672L123.287 270.473M90.6352 329.672L48.3649 185.841M123.287 270.473L97.0775 259.332" stroke="#074339" stroke-width="2"/>
<path d="M407.879 157.725L404.511 108.053M407.879 157.725L433.879 142.724L443.379 111.724M407.879 157.725L349.163 93.2622M404.511 108.053L443.379 111.724M404.511 108.053L349.163 93.2622M404.511 108.053L433.879 69.2242M404.511 108.053L330.379 35.7241M443.379 111.724L433.879 69.2242M443.379 111.724L393.379 69.2242M393.379 69.2242L330.379 35.7241M393.379 69.2242L349.163 93.2622M393.379 69.2242L393.379 35.7241M330.379 35.7241L349.163 93.2622M330.379 35.7241L393.379 35.7241M433.879 69.2242L393.379 35.7241" stroke="#074339" stroke-width="2"/>
</svg>
