<svg width="932" height="148" viewBox="0 0 932 148" fill="none" xmlns="http://www.w3.org/2000/svg">
<path d="M67.6133 26.3711C61.819 26.3711 56.6758 27.5104 52.1836 29.7891C47.7565 32.0026 44.013 35.2253 40.9531 39.457C37.9583 43.6888 35.6797 48.7995 34.1172 54.7891C32.5547 60.7786 31.7734 67.5169 31.7734 75.0039C31.7734 85.0951 33.0104 93.7214 35.4844 100.883C38.0234 107.979 41.9297 113.415 47.2031 117.191C52.4766 120.902 59.2799 122.758 67.6133 122.758C73.4076 122.758 79.2018 122.107 84.9961 120.805C90.8555 119.503 97.2031 117.647 104.039 115.238V140.629C97.724 143.233 91.5065 145.089 85.3867 146.195C79.2669 147.367 72.3984 147.953 64.7812 147.953C50.0677 147.953 37.9583 144.926 28.4531 138.871C19.013 132.751 12.0143 124.223 7.45703 113.285C2.89974 102.283 0.621094 89.457 0.621094 74.8086C0.621094 64.0013 2.08594 54.1055 5.01562 45.1211C7.94531 36.1367 12.2422 28.3568 17.9062 21.7812C23.5703 15.2057 30.569 10.1276 38.9023 6.54688C47.2357 2.96615 56.806 1.17578 67.6133 1.17578C74.7096 1.17578 81.806 2.08724 88.9023 3.91016C96.0638 5.66797 102.9 8.10938 109.41 11.2344L99.6445 35.8438C94.306 33.3047 88.9349 31.0911 83.5312 29.2031C78.1276 27.3151 72.8216 26.3711 67.6133 26.3711ZM264.098 74.418C264.098 85.4206 262.73 95.4466 259.996 104.496C257.262 113.48 253.095 121.228 247.496 127.738C241.962 134.249 234.931 139.262 226.402 142.777C217.874 146.228 207.783 147.953 196.129 147.953C184.475 147.953 174.384 146.228 165.855 142.777C157.327 139.262 150.263 134.249 144.664 127.738C139.13 121.228 134.996 113.448 132.262 104.398C129.527 95.349 128.16 85.2904 128.16 74.2227C128.16 59.444 130.569 46.5859 135.387 35.6484C140.27 24.6458 147.757 16.1172 157.848 10.0625C167.939 4.00781 180.764 0.980469 196.324 0.980469C211.819 0.980469 224.547 4.00781 234.508 10.0625C244.534 16.1172 251.956 24.6458 256.773 35.6484C261.656 46.651 264.098 59.5742 264.098 74.418ZM159.898 74.418C159.898 84.3789 161.135 92.9727 163.609 100.199C166.148 107.361 170.087 112.895 175.426 116.801C180.764 120.642 187.665 122.562 196.129 122.562C204.723 122.562 211.689 120.642 217.027 116.801C222.366 112.895 226.24 107.361 228.648 100.199C231.122 92.9727 232.359 84.3789 232.359 74.418C232.359 59.444 229.56 47.6602 223.961 39.0664C218.362 30.4727 209.15 26.1758 196.324 26.1758C187.796 26.1758 180.829 28.1289 175.426 32.0352C170.087 35.8763 166.148 41.4102 163.609 48.6367C161.135 55.7982 159.898 64.3919 159.898 74.418ZM420.348 146H381.871L319.762 37.9922H318.883C319.143 42.4844 319.371 47.0091 319.566 51.5664C319.762 56.1237 319.957 60.681 320.152 65.2383C320.348 69.7305 320.543 74.2552 320.738 78.8125V146H293.688V3.22656H331.871L393.883 110.16H394.566C394.436 105.733 394.273 101.339 394.078 96.9766C393.883 92.6146 393.688 88.2526 393.492 83.8906C393.362 79.5286 393.232 75.1667 393.102 70.8047V3.22656H420.348V146ZM511.461 146H481.188V28.4219H442.418V3.22656H550.23V28.4219H511.461V146ZM659.605 146L649.254 112.016H597.203L586.852 146H554.234L604.625 2.64062H641.637L692.223 146H659.605ZM642.027 86.625L631.676 53.4219C631.025 51.2083 630.146 48.3763 629.039 44.9258C627.997 41.4102 626.923 37.862 625.816 34.2812C624.775 30.6354 623.928 27.4779 623.277 24.8086C622.626 27.4779 621.715 30.7982 620.543 34.7695C619.436 38.6758 618.362 42.3867 617.32 45.9023C616.279 49.418 615.53 51.9245 615.074 53.4219L604.82 86.625H642.027ZM770.934 26.3711C765.139 26.3711 759.996 27.5104 755.504 29.7891C751.077 32.0026 747.333 35.2253 744.273 39.457C741.279 43.6888 739 48.7995 737.438 54.7891C735.875 60.7786 735.094 67.5169 735.094 75.0039C735.094 85.0951 736.331 93.7214 738.805 100.883C741.344 107.979 745.25 113.415 750.523 117.191C755.797 120.902 762.6 122.758 770.934 122.758C776.728 122.758 782.522 122.107 788.316 120.805C794.176 119.503 800.523 117.647 807.359 115.238V140.629C801.044 143.233 794.827 145.089 788.707 146.195C782.587 147.367 775.719 147.953 768.102 147.953C753.388 147.953 741.279 144.926 731.773 138.871C722.333 132.751 715.335 124.223 710.777 113.285C706.22 102.283 703.941 89.457 703.941 74.8086C703.941 64.0013 705.406 54.1055 708.336 45.1211C711.266 36.1367 715.562 28.3568 721.227 21.7812C726.891 15.2057 733.889 10.1276 742.223 6.54688C750.556 2.96615 760.126 1.17578 770.934 1.17578C778.03 1.17578 785.126 2.08724 792.223 3.91016C799.384 5.66797 806.22 8.10938 812.73 11.2344L802.965 35.8438C797.626 33.3047 792.255 31.0911 786.852 29.2031C781.448 27.3151 776.142 26.3711 770.934 26.3711ZM892.906 146H862.633V28.4219H823.863V3.22656H931.676V28.4219H892.906V146Z" fill="#161B22"/>
</svg>
