<svg width="392" height="468" viewBox="0 0 392 468" fill="none" xmlns="http://www.w3.org/2000/svg">
<path d="M2 355.886L143.383 304M2 355.886L58.7864 464.27M2 355.886L185 390.477M2 355.886L30.5877 321.103M2 355.886L185 364.534M143.383 304L58.7864 464.27M143.383 304L89.1243 466M58.7864 464.27L89.1243 466M58.7864 464.27L30.5877 321.103M89.1243 466L185 390.477M89.1243 466L30.5877 321.103M185 390.477V364.534M185 390.477L30.5877 321.103M185 364.534L30.5877 321.103" stroke="#074339" stroke-width="2"/>
<path d="M143.375 108.865C141.6 109.675 159.417 104.706 168.547 102.121M143.375 108.865L178.212 45.2492M143.375 108.865L254.402 238.203M168.547 102.121L178.212 45.2492M168.547 102.121L254.46 182.653M168.547 102.121L213.331 29.1581M178.212 45.2492L213.331 29.1581M254.402 238.203L254.46 182.653M254.402 238.203L335.687 182.183M254.402 238.203L328.907 274.608M254.46 182.653L335.687 182.183M254.46 182.653L213.331 29.1581M213.331 29.1581L327.323 59.5766M327.323 59.5766L335.687 182.183M327.323 59.5766L373.301 190.894M335.687 182.183L373.301 190.894M335.687 182.183L328.907 274.608M373.301 190.894L328.907 274.608" stroke="#074339" stroke-width="2"/>
</svg>
