<svg width="323" height="319" viewBox="0 0 323 319" fill="none" xmlns="http://www.w3.org/2000/svg">
<path d="M2 225.238L119.433 182M2 225.238L49.1668 315.559M2 225.238L154 254.064M2 225.238L25.745 196.253M2 225.238L154 232.445M119.433 182L49.1668 315.559M119.433 182L74.3656 317M49.1668 315.559L74.3656 317M49.1668 315.559L25.745 196.253M74.3656 317L154 254.064M74.3656 317L25.745 196.253M154 254.064V232.445M154 254.064L25.745 196.253M154 232.445L25.745 196.253" stroke="#074339" stroke-width="2"/>
<path d="M150.654 75.4354C149.424 75.9965 161.769 72.5535 168.096 70.7618M150.654 75.4354L174.793 31.3542M150.654 75.4354L227.587 165.056M168.096 70.7618L174.793 31.3542M168.096 70.7618L227.627 126.565M168.096 70.7618L199.128 20.2044M174.793 31.3542L199.128 20.2044M227.587 165.056L227.627 126.565M227.587 165.056L283.911 126.239M227.587 165.056L279.213 190.283M227.627 126.565L283.911 126.239M227.627 126.565L199.128 20.2044M199.128 20.2044L278.116 41.2821M278.116 41.2821L283.911 126.239M278.116 41.2821L309.975 132.275M283.911 126.239L309.975 132.275M283.911 126.239L279.213 190.283M309.975 132.275L279.213 190.283" stroke="#074339" stroke-width="2"/>
</svg>
