<svg width="924" height="188" viewBox="0 0 924 188" fill="none" xmlns="http://www.w3.org/2000/svg">
<path d="M46.5742 3.22656C64.9987 3.22656 78.4427 7.19792 86.9062 15.1406C95.3698 23.0182 99.6016 33.8906 99.6016 47.7578C99.6016 54.0078 98.6576 59.9974 96.7695 65.7266C94.8815 71.3906 91.7891 76.4362 87.4922 80.8633C83.2604 85.2904 77.5964 88.806 70.5 91.4102C63.4036 93.9492 54.6471 95.2188 44.2305 95.2188H31.2422V146H0.96875V3.22656H46.5742ZM45.0117 28.0312H31.2422V70.4141H41.2031C46.8672 70.4141 51.7826 69.6654 55.9492 68.168C60.1159 66.6706 63.3385 64.3268 65.6172 61.1367C67.8958 57.9466 69.0352 53.8451 69.0352 48.832C69.0352 41.8008 67.082 36.5924 63.1758 33.207C59.2695 29.7565 53.2148 28.0312 45.0117 28.0312ZM168.156 3.22656C181.112 3.22656 191.789 4.78906 200.188 7.91406C208.651 11.0391 214.934 15.7591 219.035 22.0742C223.137 28.3893 225.188 36.3646 225.188 46C225.188 52.5104 223.951 58.207 221.477 63.0898C219.003 67.9727 215.747 72.1068 211.711 75.4922C207.674 78.8776 203.312 81.6445 198.625 83.793L240.617 146H207.023L172.941 91.2148H156.828V146H126.555V3.22656H168.156ZM166.008 28.0312H156.828V66.6055H166.594C176.62 66.6055 183.781 64.9453 188.078 61.625C192.44 58.2396 194.621 53.2917 194.621 46.7812C194.621 40.0104 192.277 35.1927 187.59 32.3281C182.967 29.4635 175.773 28.0312 166.008 28.0312ZM388.176 74.418C388.176 85.4206 386.809 95.4466 384.074 104.496C381.34 113.48 377.173 121.228 371.574 127.738C366.04 134.249 359.009 139.262 350.48 142.777C341.952 146.228 331.861 147.953 320.207 147.953C308.553 147.953 298.462 146.228 289.934 142.777C281.405 139.262 274.341 134.249 268.742 127.738C263.208 121.228 259.074 113.448 256.34 104.398C253.605 95.349 252.238 85.2904 252.238 74.2227C252.238 59.444 254.647 46.5859 259.465 35.6484C264.348 24.6458 271.835 16.1172 281.926 10.0625C292.017 4.00781 304.842 0.980469 320.402 0.980469C335.897 0.980469 348.625 4.00781 358.586 10.0625C368.612 16.1172 376.034 24.6458 380.852 35.6484C385.734 46.651 388.176 59.5742 388.176 74.418ZM283.977 74.418C283.977 84.3789 285.214 92.9727 287.688 100.199C290.227 107.361 294.165 112.895 299.504 116.801C304.842 120.642 311.743 122.562 320.207 122.562C328.801 122.562 335.767 120.642 341.105 116.801C346.444 112.895 350.318 107.361 352.727 100.199C355.201 92.9727 356.438 84.3789 356.438 74.418C356.438 59.444 353.638 47.6602 348.039 39.0664C342.44 30.4727 333.228 26.1758 320.402 26.1758C311.874 26.1758 304.908 28.1289 299.504 32.0352C294.165 35.8763 290.227 41.4102 287.688 48.6367C285.214 55.7982 283.977 64.3919 283.977 74.418ZM402.824 187.992C398.918 187.992 395.5 187.764 392.57 187.309C389.576 186.918 387.036 186.43 384.953 185.844V160.648C387.036 161.104 389.283 161.527 391.691 161.918C394.035 162.374 396.542 162.602 399.211 162.602C402.727 162.602 405.884 161.918 408.684 160.551C411.483 159.249 413.697 156.742 415.324 153.031C416.952 149.32 417.766 143.982 417.766 137.016V3.22656H448.039V136.82C448.039 149.06 446.118 158.923 442.277 166.41C438.501 173.962 433.195 179.431 426.359 182.816C419.589 186.267 411.743 187.992 402.824 187.992ZM566.203 146H483.977V3.22656H566.203V28.0312H514.25V59.3789H562.59V84.1836H514.25V121H566.203V146ZM656.73 26.3711C650.936 26.3711 645.793 27.5104 641.301 29.7891C636.874 32.0026 633.13 35.2253 630.07 39.457C627.076 43.6888 624.797 48.7995 623.234 54.7891C621.672 60.7786 620.891 67.5169 620.891 75.0039C620.891 85.0951 622.128 93.7214 624.602 100.883C627.141 107.979 631.047 113.415 636.32 117.191C641.594 120.902 648.397 122.758 656.73 122.758C662.525 122.758 668.319 122.107 674.113 120.805C679.973 119.503 686.32 117.647 693.156 115.238V140.629C686.841 143.233 680.624 145.089 674.504 146.195C668.384 147.367 661.516 147.953 653.898 147.953C639.185 147.953 627.076 144.926 617.57 138.871C608.13 132.751 601.132 124.223 596.574 113.285C592.017 102.283 589.738 89.457 589.738 74.8086C589.738 64.0013 591.203 54.1055 594.133 45.1211C597.062 36.1367 601.359 28.3568 607.023 21.7812C612.688 15.2057 619.686 10.1276 628.02 6.54688C636.353 2.96615 645.923 1.17578 656.73 1.17578C663.827 1.17578 670.923 2.08724 678.02 3.91016C685.181 5.66797 692.017 8.10938 698.527 11.2344L688.762 35.8438C683.423 33.3047 678.052 31.0911 672.648 29.2031C667.245 27.3151 661.939 26.3711 656.73 26.3711ZM778.703 146H748.43V28.4219H709.66V3.22656H817.473V28.4219H778.703V146ZM923.723 106.352C923.723 114.815 921.672 122.172 917.57 128.422C913.469 134.672 907.479 139.49 899.602 142.875C891.789 146.26 882.284 147.953 871.086 147.953C866.138 147.953 861.288 147.628 856.535 146.977C851.848 146.326 847.323 145.382 842.961 144.145C838.664 142.842 834.562 141.247 830.656 139.359V111.234C837.427 114.229 844.458 116.931 851.75 119.34C859.042 121.749 866.268 122.953 873.43 122.953C878.378 122.953 882.349 122.302 885.344 121C888.404 119.698 890.617 117.908 891.984 115.629C893.352 113.35 894.035 110.746 894.035 107.816C894.035 104.236 892.831 101.176 890.422 98.6367C888.013 96.0977 884.693 93.7214 880.461 91.5078C876.294 89.2943 871.574 86.918 866.301 84.3789C862.98 82.8164 859.367 80.9284 855.461 78.7148C851.555 76.4362 847.844 73.6693 844.328 70.4141C840.812 67.1589 837.915 63.2201 835.637 58.5977C833.423 53.9102 832.316 48.3112 832.316 41.8008C832.316 33.2721 834.27 25.9805 838.176 19.9258C842.082 13.8711 847.648 9.2487 854.875 6.05859C862.167 2.80339 870.76 1.17578 880.656 1.17578C888.078 1.17578 895.142 2.05469 901.848 3.8125C908.618 5.50521 915.682 7.97917 923.039 11.2344L913.273 34.7695C906.698 32.1003 900.806 30.0495 895.598 28.6172C890.389 27.1198 885.083 26.3711 879.68 26.3711C875.904 26.3711 872.681 26.9896 870.012 28.2266C867.342 29.3984 865.324 31.0911 863.957 33.3047C862.59 35.4531 861.906 37.9596 861.906 40.8242C861.906 44.2096 862.883 47.0742 864.836 49.418C866.854 51.6966 869.849 53.9102 873.82 56.0586C877.857 58.207 882.87 60.7135 888.859 63.5781C896.151 67.0286 902.368 70.6419 907.512 74.418C912.72 78.1289 916.724 82.5234 919.523 87.6016C922.323 92.6146 923.723 98.8646 923.723 106.352Z" fill="#161B22"/>
</svg>
