<svg width="629" height="147" viewBox="0 0 629 147" fill="none" xmlns="http://www.w3.org/2000/svg">
<path d="M93.2461 105.352C93.2461 113.815 91.1953 121.172 87.0938 127.422C82.9922 133.672 77.0026 138.49 69.125 141.875C61.3125 145.26 51.8073 146.953 40.6094 146.953C35.6615 146.953 30.8112 146.628 26.0586 145.977C21.3711 145.326 16.8464 144.382 12.4844 143.145C8.1875 141.842 4.08594 140.247 0.179688 138.359V110.234C6.95052 113.229 13.9818 115.931 21.2734 118.34C28.5651 120.749 35.7917 121.953 42.9531 121.953C47.901 121.953 51.8724 121.302 54.8672 120C57.9271 118.698 60.1406 116.908 61.5078 114.629C62.875 112.35 63.5586 109.746 63.5586 106.816C63.5586 103.236 62.3542 100.176 59.9453 97.6367C57.5365 95.0977 54.2161 92.7214 49.9844 90.5078C45.8177 88.2943 41.0977 85.918 35.8242 83.3789C32.5039 81.8164 28.8906 79.9284 24.9844 77.7148C21.0781 75.4362 17.3672 72.6693 13.8516 69.4141C10.3359 66.1589 7.4388 62.2201 5.16016 57.5977C2.94661 52.9102 1.83984 47.3112 1.83984 40.8008C1.83984 32.2721 3.79297 24.9805 7.69922 18.9258C11.6055 12.8711 17.1719 8.2487 24.3984 5.05859C31.6901 1.80339 40.2839 0.175781 50.1797 0.175781C57.6016 0.175781 64.6654 1.05469 71.3711 2.8125C78.1419 4.50521 85.2057 6.97917 92.5625 10.2344L82.7969 33.7695C76.2214 31.1003 70.3294 29.0495 65.1211 27.6172C59.9128 26.1198 54.6068 25.3711 49.2031 25.3711C45.4271 25.3711 42.2044 25.9896 39.5352 27.2266C36.8659 28.3984 34.8477 30.0911 33.4805 32.3047C32.1133 34.4531 31.4297 36.9596 31.4297 39.8242C31.4297 43.2096 32.4062 46.0742 34.3594 48.418C36.3776 50.6966 39.3724 52.9102 43.3438 55.0586C47.3802 57.207 52.3932 59.7135 58.3828 62.5781C65.6745 66.0286 71.8919 69.6419 77.0352 73.418C82.2435 77.1289 86.2474 81.5234 89.0469 86.6016C91.8464 91.6146 93.2461 97.8646 93.2461 105.352ZM233.969 145H199.594L162.191 84.8438L149.398 94.0234V145H119.125V2.22656H149.398V67.5586C151.417 64.7591 153.402 61.9596 155.355 59.1602C157.309 56.3607 159.294 53.5612 161.312 50.7617L199.984 2.22656H233.578L183.773 65.4102L233.969 145ZM251.938 145V2.22656H282.211V145H251.938ZM318.148 145V2.22656H348.422V120H406.332V145H318.148ZM431.234 145V2.22656H461.508V120H519.418V145H431.234ZM628.598 105.352C628.598 113.815 626.547 121.172 622.445 127.422C618.344 133.672 612.354 138.49 604.477 141.875C596.664 145.26 587.159 146.953 575.961 146.953C571.013 146.953 566.163 146.628 561.41 145.977C556.723 145.326 552.198 144.382 547.836 143.145C543.539 141.842 539.438 140.247 535.531 138.359V110.234C542.302 113.229 549.333 115.931 556.625 118.34C563.917 120.749 571.143 121.953 578.305 121.953C583.253 121.953 587.224 121.302 590.219 120C593.279 118.698 595.492 116.908 596.859 114.629C598.227 112.35 598.91 109.746 598.91 106.816C598.91 103.236 597.706 100.176 595.297 97.6367C592.888 95.0977 589.568 92.7214 585.336 90.5078C581.169 88.2943 576.449 85.918 571.176 83.3789C567.855 81.8164 564.242 79.9284 560.336 77.7148C556.43 75.4362 552.719 72.6693 549.203 69.4141C545.688 66.1589 542.79 62.2201 540.512 57.5977C538.298 52.9102 537.191 47.3112 537.191 40.8008C537.191 32.2721 539.145 24.9805 543.051 18.9258C546.957 12.8711 552.523 8.2487 559.75 5.05859C567.042 1.80339 575.635 0.175781 585.531 0.175781C592.953 0.175781 600.017 1.05469 606.723 2.8125C613.493 4.50521 620.557 6.97917 627.914 10.2344L618.148 33.7695C611.573 31.1003 605.681 29.0495 600.473 27.6172C595.264 26.1198 589.958 25.3711 584.555 25.3711C580.779 25.3711 577.556 25.9896 574.887 27.2266C572.217 28.3984 570.199 30.0911 568.832 32.3047C567.465 34.4531 566.781 36.9596 566.781 39.8242C566.781 43.2096 567.758 46.0742 569.711 48.418C571.729 50.6966 574.724 52.9102 578.695 55.0586C582.732 57.207 587.745 59.7135 593.734 62.5781C601.026 66.0286 607.243 69.6419 612.387 73.418C617.595 77.1289 621.599 81.5234 624.398 86.6016C627.198 91.6146 628.598 97.8646 628.598 105.352Z" fill="#161B22"/>
</svg>
